<svg width="19" height="19" viewBox="0 0 19 19" fill="none" xmlns="http://www.w3.org/2000/svg">
<path d="M9.86798 9.86697C8.81589 9.91456 7.78776 9.54363 7.00839 8.83528C6.22902 8.12694 5.76184 7.13881 5.70898 6.08697V5.33097C5.76158 4.27895 6.22866 3.29057 7.00805 2.58201C7.78745 1.87346 8.81573 1.50239 9.86798 1.54997V1.54997C10.9202 1.50239 11.9485 1.87346 12.7279 2.58201C13.5073 3.29057 13.9744 4.27895 14.027 5.33097V6.08697C13.9741 7.13881 13.5069 8.12694 12.7276 8.83528C11.9482 9.54363 10.9201 9.91456 9.86798 9.86697V9.86697Z" stroke="black" stroke-width="1.5" stroke-miterlimit="10" stroke-linecap="square"/>
<path d="M18.1848 16.603C18.1636 15.9138 17.9115 15.2518 17.4691 14.723C17.0266 14.1942 16.4194 13.8294 15.7448 13.687C13.8241 13.19 11.8514 12.9215 9.86778 12.887C7.88413 12.9215 5.91149 13.19 3.99078 13.687C3.31618 13.8294 2.70895 14.1942 2.26649 14.723C1.82404 15.2518 1.57199 15.9138 1.55078 16.603V18.185H18.1848V16.603Z" stroke="black" stroke-width="1.5" stroke-miterlimit="10" stroke-linecap="square"/>
</svg>
