<svg id="Group_7" data-name="Group 7" xmlns="http://www.w3.org/2000/svg" width="20.524" height="20.725" viewBox="0 0 20.524 20.725">
  <g id="Group_2" data-name="Group 2" transform="translate(0 0)">
    <path id="Cart" d="M20.034,3.932a2.014,2.014,0,0,0-1.542-.681H3.74L3.592,2.139A2.252,2.252,0,0,0,1.691,0H.607a.607.607,0,0,0,0,1.214H1.691c.195,0,.607.412.7,1.085L4.126,15.335a2.455,2.455,0,0,0,.831,1.515,2.509,2.509,0,0,0,1.165.58,2.233,2.233,0,1,0,3.95.044h3.182a2.233,2.233,0,1,0,3.972,0h1.591a.607.607,0,1,0,0-1.214H6.569A1.3,1.3,0,0,1,5.33,15.174L5.2,14.221H17.191a2.521,2.521,0,0,0,2.443-2.139L20.5,5.551a2.014,2.014,0,0,0-.471-1.618ZM9.1,18.492a1.019,1.019,0,1,1-1.019-1.019A1.02,1.02,0,0,1,9.1,18.492Zm7.154,0a1.019,1.019,0,1,1-1.019-1.019A1.02,1.02,0,0,1,16.259,18.492ZM19.12,4.732a.816.816,0,0,1,.181.658l-.365,2.739H14.8l.244-3.663h3.443a.817.817,0,0,1,.628.266ZM10.5,13.007l-.244-3.663h3.253l-.244,3.663Zm-.325-4.878L9.928,4.466h3.9l-.244,3.663ZM8.711,4.466l.244,3.663H4.39L3.9,4.466ZM4.552,9.344H9.036l.244,3.663H5.041Zm12.639,3.663H14.479l.244-3.663h4.05l-.344,2.579a1.3,1.3,0,0,1-1.239,1.085Zm0,0" transform="translate(0)" fill="#000"/>
  </g>
</svg>
