<svg width="106" height="106" viewBox="0 0 106 106" fill="none" xmlns="http://www.w3.org/2000/svg">
<path d="M75.1316 91.0876C74.5229 91.468 72.8491 95.7667 73.6099 99.7611C74.1805 102.766 75.9304 104.516 78.8597 104.973C80.3813 105.201 81.7128 103.679 82.3976 102.766C84.4518 99.8372 85.4409 95.2722 84.4138 93.3701C84.2996 93.1799 84.2236 93.1418 84.1094 93.1038C83.6529 92.9897 82.8921 93.4462 82.5878 93.7125C82.4356 93.8266 82.2834 93.8646 82.0932 93.8266C81.903 93.7885 81.7889 93.6744 81.7128 93.4842C81.4846 92.9516 80.6857 91.5821 79.7727 91.468C79.202 91.3919 78.4412 92.1147 78.1369 92.4951C78.0227 92.6473 77.8325 92.7234 77.6423 92.7234C77.4521 92.7234 77.3 92.6092 77.1858 92.4571C77.2239 92.381 76.2728 90.8213 75.1316 91.0876Z" fill="#FDBB82"/>
<path d="M63.719 88.6529C61.7028 91.5061 58.4692 92.9517 54.1325 92.9517C49.7957 92.9517 46.5622 91.5061 44.5459 88.6529C39.5244 81.5391 43.5188 68.0343 44.5459 64.8768C42.2254 64.4964 39.9429 63.9638 37.8125 63.3171C36.7854 63.5073 30.052 64.4583 22.786 59.4368C22.6719 59.3607 22.5958 59.2847 22.5578 59.1705C21.9872 57.5347 21.0741 56.0131 20.6557 56.0131C20.1611 56.0131 19.8188 57.1543 19.7807 57.763C19.7427 58.0293 19.5525 58.2195 19.2862 58.2575C19.0199 58.2956 18.7916 58.1434 18.6775 57.9152C18.6775 57.9152 17.9547 56.2413 17.0037 56.6217C16.8895 56.6598 16.8515 56.7359 16.8135 56.8119C16.6613 57.3065 17.27 58.4097 17.6884 59.0184C17.8026 59.1705 17.8406 59.3988 17.7645 59.589C17.6884 59.7792 17.4982 59.8933 17.308 59.9314C16.6993 60.0075 15.6342 60.2737 15.3679 60.5781C15.3298 60.6161 15.3298 60.6542 15.3298 60.6542C15.3679 60.9205 16.5091 61.3389 17.8026 61.377C18.0308 61.377 18.2591 61.5672 18.3351 61.7954C18.4112 62.0237 18.2971 62.29 18.1069 62.4041C17.5743 62.7465 17.0417 63.279 16.9276 63.5073C17.4982 63.8116 19.0579 63.9638 20.009 63.9258C20.2372 63.9258 20.4274 64.0399 20.5035 64.2301C20.6176 64.3062 24.8022 71.6102 36.5572 72.9036H36.5952C36.6332 72.9036 36.6332 72.9036 36.6713 72.9036C36.7093 72.9036 36.7093 72.9036 36.7093 72.9417H36.7474L36.7854 72.9797L36.8235 73.0178L36.8615 73.0558L36.8995 73.0938L36.9376 73.1319L36.9756 73.1699C36.9756 73.1699 36.9756 73.208 37.0137 73.208C37.0137 73.208 37.0137 73.246 37.0517 73.246V73.284V73.3221V73.3601C37.0517 73.3982 37.0517 73.3982 37.0517 73.4362C37.0517 73.5123 37.0137 73.5503 37.0137 73.5884C35.7963 76.1372 34.4649 80.0935 35.1877 84.3542C35.7583 87.6638 35.6822 89.3757 34.9594 90.2507C34.8072 90.4409 34.579 90.5931 34.3507 90.7452C35.3018 92.2669 36.0626 95.4624 35.9485 98.1634C35.8724 99.9894 35.454 101.511 34.6931 102.766C38.7636 101.093 43.1384 100.18 44.1655 99.9514C45.1166 99.7612 46.2959 99.9894 47.7795 100.294C49.4533 100.636 51.5076 101.055 54.0944 101.055C56.7193 101.055 58.7736 100.636 60.4094 100.294C61.893 99.9894 63.0723 99.7612 64.0234 99.9514C65.0885 100.18 69.4253 101.093 73.4958 102.766C72.7349 101.549 72.3165 99.9894 72.2404 98.1634C72.1263 95.4624 72.8871 92.2669 73.8381 90.7452C73.6099 90.6311 73.3816 90.4789 73.2295 90.2507C72.5067 89.3377 72.4306 87.6638 73.0012 84.3542C73.724 80.1316 72.3925 76.1752 71.1752 73.5884C71.1372 73.5503 71.1372 73.4743 71.1372 73.4362C71.1372 73.3982 71.1372 73.3982 71.1372 73.3601V73.3221V73.284V73.246C71.1372 73.246 71.1372 73.208 71.1752 73.208C71.1752 73.208 71.1752 73.1699 71.2133 73.1699L71.2513 73.1319L71.2893 73.0938L71.3274 73.0558L71.3654 73.0178L71.4035 72.9797L71.4415 72.9417H71.4795C71.4795 72.9417 71.5176 72.9417 71.5176 72.9036C71.5556 72.9036 71.5556 72.9036 71.5937 72.9036H71.6317C83.4247 71.6102 87.5712 64.3442 87.6473 64.2681C87.7614 64.0779 87.9517 63.9638 88.1419 63.9638C89.1309 63.9638 90.6907 63.8497 91.2232 63.5453C91.1091 63.279 90.5765 62.7845 90.044 62.4421C89.8537 62.29 89.7396 62.0617 89.8157 61.8335C89.8918 61.6052 90.082 61.415 90.3483 61.415C91.6417 61.3389 92.821 60.9585 92.821 60.6922C92.821 60.6922 92.821 60.6542 92.783 60.6161C92.5167 60.2737 91.4515 60.0075 90.8428 59.9694C90.6526 59.9314 90.4624 59.8172 90.3863 59.627C90.3102 59.4368 90.3102 59.2086 90.4624 59.0564C90.8809 58.4477 91.4895 57.3445 91.3374 56.85C91.2993 56.7739 91.2613 56.6978 91.1472 56.6598C90.2342 56.2794 89.5114 57.9532 89.4733 57.9532C89.3592 58.1814 89.1309 58.3336 88.8647 58.2956C88.5984 58.2575 88.4082 58.0673 88.3701 57.801C88.294 57.1924 87.9897 56.0511 87.4952 56.0511C87.0767 56.0511 86.1637 57.5728 85.5931 59.2086C85.555 59.3227 85.4789 59.4368 85.3648 59.4749C78.0988 64.4964 71.3654 63.5453 70.3383 63.3551C68.1699 64.0018 65.9254 64.5344 63.6049 64.9148C64.7461 68.0343 68.7025 81.5391 63.719 88.6529Z" fill="#C46B4C"/>
<path d="M34.0845 84.6586C34.0464 84.3162 33.9704 84.0119 33.9704 83.6695C32.6389 83.0228 26.5902 80.5501 21.6068 85.8379C19.1341 88.4628 17.3461 88.3486 16.4711 88.0063C15.3679 87.5878 14.6071 86.4846 14.531 85.1531C14.4549 83.8977 15.0636 82.8326 16.0527 82.3761C17.7645 81.5392 18.7536 80.7022 18.9819 79.8653C19.096 79.3708 18.9819 78.8382 18.5634 78.2295C18.221 77.773 17.3461 77.6208 16.319 77.8871C14.1125 78.4578 11.5257 80.6261 11.1453 84.126C10.8029 87.3215 11.6398 90.2127 13.4278 91.8485C14.569 92.8756 15.9005 93.256 17.3461 92.9897C19.096 92.6474 20.6177 91.3539 22.2535 89.9844C25.3349 87.3595 28.8347 84.4303 34.3888 88.4247C34.5029 87.3215 34.2747 85.8379 34.0845 84.6586Z" fill="#C46B4C"/>
<path d="M45.497 88.0062C47.285 90.555 50.1762 91.8485 54.1325 91.8485C58.0889 91.8485 60.98 90.555 62.768 88.0062C67.5232 81.2728 63.4147 67.6919 62.5398 65.067C59.8007 65.4474 56.9856 65.6757 54.1325 65.6757C51.2413 65.6757 48.4262 65.4855 45.7253 65.067C44.8503 67.6919 40.7418 81.2728 45.497 88.0062Z" fill="#FDBB82"/>
<path d="M17.1559 10.6292C16.7374 8.65105 17.4982 6.90112 19.3623 5.72183C20.5416 4.96099 21.7589 4.73274 22.9382 5.1512C25.1827 5.87399 26.7044 8.613 27.313 9.86838C28.3402 9.14559 29.4434 8.46084 30.5846 7.85217C29.8618 6.48266 27.4272 2.56436 23.8132 1.46114C21.835 0.852474 19.7427 1.15681 17.6504 2.41219C13.4278 4.92295 13.3136 8.72713 13.618 10.7814C14.1506 14.3193 16.6233 17.8191 19.134 18.7321C19.7427 17.667 20.4275 16.6779 21.1883 15.6888C19.5525 14.966 17.6504 12.8737 17.1559 10.6292Z" fill="#C46B4C"/>
<path d="M14.2647 11.7705C13.9604 9.71622 14.0745 5.87399 18.2971 3.40128C20.3894 2.1459 22.4817 1.84156 24.4599 2.45023C27.0848 3.24911 29.063 5.53162 30.2423 7.2435C29.2151 5.56966 27.0087 2.45023 23.8132 1.46114C21.835 0.852474 19.7427 1.15681 17.6504 2.41219C13.4278 4.92295 13.3136 8.72713 13.618 10.7814C13.8843 12.6074 14.6832 14.4334 15.7483 15.879C14.9875 14.6236 14.4549 13.2161 14.2647 11.7705Z" fill="#D88965"/>
<path d="M26.362 10.5912C25.9055 9.56405 24.536 6.90112 22.5958 6.25441C21.7589 5.98812 20.8839 6.14029 20.009 6.71092C18.5634 7.66196 17.9928 8.8793 18.2971 10.401C18.7536 12.4552 20.6937 14.3573 21.9491 14.8138C22.1013 14.6236 22.2535 14.4334 22.4437 14.2432C23.5849 12.9117 24.9164 11.6944 26.362 10.5912Z" fill="#FDBB82"/>
<path d="M34.6551 99.7231C35.4159 95.7287 33.7421 91.468 33.1334 91.0495C32.0302 90.8213 31.0792 92.381 31.0411 92.381C30.927 92.5332 30.7748 92.6473 30.5846 92.6473C30.3944 92.6473 30.2042 92.5712 30.0901 92.419C29.7857 92.0386 29.0249 91.3158 28.4923 91.3919C27.5793 91.506 26.7804 92.9136 26.5522 93.4081C26.4761 93.5603 26.3239 93.6744 26.1718 93.7505C25.9816 93.7886 25.8294 93.7505 25.6772 93.6364C25.4109 93.4081 24.7642 93.0277 24.3077 93.0277C24.2697 93.0277 24.2316 93.0277 24.1936 93.0277C24.1175 93.0658 24.0034 93.1038 23.8893 93.294C22.8621 95.1961 23.8512 99.7611 25.9055 102.69C26.5522 103.603 27.8837 105.125 29.4434 104.897C32.3345 104.478 34.0845 102.728 34.6551 99.7231Z" fill="#FDBB82"/>
<path d="M89.9679 10.401C90.3103 8.8793 89.7396 7.62392 88.256 6.71092C87.343 6.14029 86.5061 5.98812 85.6692 6.25441C83.691 6.90112 82.3595 9.60209 81.903 10.5912C83.3486 11.6944 84.6801 12.9117 85.8594 14.2432C86.0115 14.4334 86.1637 14.6236 86.3539 14.8138C87.5712 14.3573 89.5494 12.4552 89.9679 10.401Z" fill="#FDBB82"/>
<path d="M54.1325 3.85767C40.4375 3.85767 29.7857 7.69989 23.2806 15.0039C17.7645 21.1667 15.2918 29.7261 16.3189 39.0844C18.2971 56.6597 36.7094 64.5344 54.1325 64.5344C71.5176 64.5344 89.9679 56.6597 91.9461 39.0844C93.0112 29.7261 90.5385 21.1667 84.9844 15.0039C78.4793 7.69989 67.8276 3.85767 54.1325 3.85767ZM84.7181 40.1496C83.0823 45.3232 79.6966 49.7361 74.9033 52.9316C69.3873 56.5836 62.4256 58.4477 54.1705 58.4477C45.9155 58.4477 38.9158 56.5836 33.4378 52.9316C28.6445 49.7361 25.2207 45.3232 23.623 40.1496C20.884 31.5901 23.661 22.6123 30.4705 17.8571C35.1496 14.5855 39.7527 13.4062 44.0895 14.3192C49.4914 15.4604 52.9152 19.4548 54.1325 21.1286C55.3498 19.4929 58.7736 15.4604 64.1755 14.3192C68.5123 13.4062 73.1154 14.5855 77.7945 17.8571C84.604 22.6123 87.4191 31.5901 84.7181 40.1496Z" fill="#C46B4C"/>
<path d="M23.2806 16.6397C29.7857 9.37373 40.4755 5.49346 54.1325 5.49346C67.7895 5.49346 78.4793 9.33569 84.9844 16.6397C89.5114 21.6993 91.9841 28.3566 92.1743 35.7747C92.3645 27.7099 89.8918 20.4439 85.0225 15.0039C78.5173 7.73793 67.8276 3.85767 54.1705 3.85767C40.5135 3.85767 29.7857 7.69989 23.2806 14.9659C18.4112 20.4059 15.9005 27.7099 16.0907 35.7747C16.2809 28.3566 18.7536 21.6993 23.2806 16.6397Z" fill="#D88965"/>
<path d="M91.946 35.1662C89.9679 52.7415 71.5556 60.6162 54.1325 60.6162C36.7474 60.6162 18.2971 52.7415 16.3189 35.1662C16.2428 34.4434 16.1668 33.7206 16.1287 32.9978C16.0146 34.976 16.0526 37.0302 16.3189 39.0845C18.2971 56.6598 36.7093 64.5345 54.1325 64.5345C71.5176 64.5345 89.9679 56.6598 91.946 39.0845C92.1743 36.9922 92.2123 34.976 92.1363 32.9978C92.0602 33.7206 92.0221 34.4434 91.946 35.1662Z" fill="#B05238"/>
<path d="M90.6146 2.41219C88.5223 1.15681 86.43 0.852474 84.4519 1.46114C80.8379 2.56436 78.4413 6.5207 77.6804 7.85217C78.8217 8.46084 79.9249 9.14559 80.952 9.86838C81.5607 8.57496 83.0443 5.87399 85.3268 5.1512C86.5061 4.77078 87.7235 4.96099 88.9028 5.72183C90.7288 6.90112 91.5276 8.65105 91.1092 10.6292C90.6146 12.8737 88.7125 14.966 87.1148 15.6888C87.8756 16.6398 88.5604 17.667 89.169 18.7321C91.6798 17.8191 94.1906 14.3193 94.6851 10.7814C94.9514 8.72713 94.8373 4.92295 90.6146 2.41219Z" fill="#C46B4C"/>
<path d="M90.6146 2.41219C88.5223 1.15681 86.43 0.852474 84.4519 1.46114C82.2835 2.1459 80.5335 3.81974 79.3542 5.34141C80.5335 4.00994 82.0552 2.64044 83.9573 2.06981C85.9355 1.46114 88.0278 1.76548 90.1201 3.02086C94.3427 5.49358 94.4568 9.3358 94.1525 11.3901C93.8482 13.3302 92.9732 15.2703 91.832 16.754C93.2395 15.1942 94.3047 12.9878 94.6471 10.7814C94.9514 8.72713 94.8373 4.92295 90.6146 2.41219Z" fill="#D88965"/>
<path d="M77.1098 18.8081C72.6969 15.7268 68.3982 14.5855 64.4038 15.4224C58.203 16.7158 54.6651 22.346 54.6271 22.4221L54.589 22.4602L54.551 22.4982L54.5129 22.5362L54.4749 22.5743H54.4368C54.4368 22.5743 54.3988 22.5743 54.3988 22.6123H54.3608H54.3227H54.2847H54.2466H54.2086H54.1705H54.1325H54.0945C54.0945 22.6123 54.0564 22.6123 54.0564 22.5743H54.0184L53.9803 22.5362L53.9423 22.4982L53.9043 22.4602L53.8662 22.4221C53.8282 22.3841 50.2903 16.7158 44.0895 15.4224C40.057 14.5855 35.7964 15.7268 31.3835 18.8081C24.9544 23.259 22.3676 31.7424 24.8784 39.8453C28.3021 50.8013 39.3342 57.3065 54.3608 57.3065C69.3873 57.3065 80.4194 50.7633 83.8432 39.8453C86.1637 31.7043 83.5388 23.259 77.1098 18.8081Z" fill="#FDBB82"/>
<path d="M83.6149 37.3725C80.1911 48.3286 69.159 54.8337 54.1325 54.8337C39.106 54.8337 28.0738 48.2905 24.6501 37.3725C24.1175 35.6987 23.8132 34.0248 23.7371 32.389C23.5849 34.8237 23.8892 37.3345 24.6501 39.8072C28.0738 50.7632 39.106 57.2684 54.1325 57.2684C69.159 57.2684 80.1911 50.7252 83.6149 39.8072C84.3757 37.3345 84.6801 34.7857 84.5279 32.389C84.4518 34.0629 84.1475 35.7367 83.6149 37.3725Z" fill="#FD9D60"/>
<path d="M39.2201 38.1334C40.4387 38.1334 41.4265 36.7198 41.4265 34.976C41.4265 33.2321 40.4387 31.8185 39.2201 31.8185C38.0015 31.8185 37.0137 33.2321 37.0137 34.976C37.0137 36.7198 38.0015 38.1334 39.2201 38.1334Z" fill="#262425"/>
<path d="M41.2744 26.4927C41.0461 26.3785 40.8559 26.3025 40.5896 26.3025C40.2092 26.2644 39.8288 26.2644 39.4864 26.3025C39.1821 26.3405 38.9158 26.3785 38.6114 26.4546C38.3452 26.5307 38.0789 26.6448 37.8126 26.797C37.3941 26.9872 37.0137 27.2535 36.6713 27.5578C36.2148 27.9763 35.8344 28.585 35.9866 29.1936C36.0626 29.4599 36.2909 29.7262 36.5572 29.7643C36.7854 29.8023 37.0137 29.8023 37.2419 29.7262C37.4321 29.6882 37.6224 29.5741 37.7745 29.498C37.9647 29.4219 38.1549 29.3078 38.3452 29.2317C38.6495 29.1176 38.9919 29.0034 39.2962 28.9654C39.1821 28.9654 39.0679 29.0034 38.9538 29.0034C39.0679 29.0034 39.2201 28.9654 39.3342 28.9654C39.6766 28.9273 40.019 28.9273 40.3994 28.9654C40.3233 28.9654 40.2472 28.9654 40.2092 28.9273C40.5896 28.9654 40.894 28.9654 41.1983 28.7752C41.5787 28.585 41.7689 28.2045 41.845 27.7861C41.883 27.4057 41.807 27.1013 41.5787 26.797C41.5787 26.6829 41.4265 26.5687 41.2744 26.4927Z" fill="#262425"/>
<path d="M95.7883 10.9716C96.1307 8.61296 96.0165 4.27619 91.2233 1.4611C88.8266 0.0155109 86.43 -0.326865 84.1475 0.357887C80.077 1.61327 77.4902 5.83591 76.6913 7.31954C70.5666 4.27619 62.9582 2.67844 54.1325 2.67844C45.3068 2.67844 37.6984 4.27619 31.5737 7.31954C30.7748 5.83591 28.188 1.61327 24.1175 0.357887C21.835 -0.364907 19.4384 0.0155109 17.0417 1.42306C12.2485 4.23815 12.1343 8.61296 12.4767 10.9335C13.0473 14.8138 15.7103 18.5799 18.5634 19.7212C15.5581 25.3133 14.3788 32.0467 15.1777 39.1986C16.1287 47.5297 20.6938 54.4533 28.4162 59.1705C30.4325 60.3879 32.6008 61.453 34.9594 62.328C32.2965 62.2519 28.0358 61.6052 23.5849 58.5619C23.2045 57.4967 22.1013 54.8338 20.6557 54.8338C19.7427 54.8338 19.2482 55.5185 18.9819 56.2413C18.4112 55.5946 17.5743 55.1381 16.5852 55.5185C16.1668 55.7087 15.8624 56.0131 15.7483 56.4315C15.5201 57.1924 15.9385 58.1814 16.3189 58.8662C15.6722 59.0184 14.9114 59.2847 14.4929 59.7792C14.2647 60.0455 14.1886 60.3879 14.2266 60.6922C14.3408 61.6432 15.444 62.0617 16.4331 62.29C16.0907 62.6704 15.7864 63.0888 15.7864 63.5073C15.7864 63.8497 15.9385 64.154 16.2429 64.3442C17.0417 64.9148 18.9058 64.9909 19.7427 65.029C20.6557 66.4746 25.0686 72.4471 35.6442 73.8547C34.6551 76.0611 33.7421 79.0664 33.8562 82.338C31.6118 81.463 25.6392 79.7892 20.7698 84.9629C19.2862 86.5606 17.8787 87.2454 16.8896 86.865C16.1287 86.5987 15.7483 85.7237 15.7103 85.0009C15.6722 84.202 16.0146 83.5934 16.5852 83.289C18.6395 82.2999 19.8188 81.2348 20.1231 80.0555C20.3514 79.2186 20.1612 78.3816 19.5525 77.5067C18.9438 76.5937 17.6504 76.2893 16.0907 76.7078C13.5039 77.3545 10.4985 79.9033 10.0801 83.9358C9.69967 87.5117 10.6888 90.7452 12.743 92.6093C13.8462 93.5984 15.1396 94.131 16.5472 94.131C16.9276 94.131 17.308 94.0929 17.6504 94.0168C19.7047 93.5984 21.4165 92.1528 23.0523 90.7452C26.1718 88.1203 29.101 85.6476 34.1606 89.4899C34.1606 89.5279 34.1225 89.5279 34.1225 89.5659C34.0084 89.6801 33.8182 89.8322 33.3617 89.8703C32.1063 89.604 31.0792 90.517 30.5466 91.1257C30.052 90.6691 29.2532 90.0985 28.3782 90.2126C27.1609 90.3648 26.2859 91.5441 25.8674 92.3049C25.3729 92.0387 24.6501 91.7343 24.0034 91.8865C23.5469 92.0006 23.1665 92.2669 22.9382 92.7234C21.6068 95.1961 22.9382 100.37 25.0305 103.299C26.2859 105.049 27.7315 106 29.1771 106C29.3292 106 29.5195 106 29.6716 105.962C30.2422 105.886 30.7748 105.734 31.2694 105.582C31.3074 105.582 31.3835 105.62 31.4215 105.62C31.5357 105.62 31.6118 105.582 31.7259 105.543C36.2909 102.766 43.671 101.245 44.5079 101.093C45.2307 100.94 46.2959 101.169 47.6654 101.435C49.3773 101.777 51.5076 102.196 54.2086 102.196C56.9476 102.196 59.0399 101.777 60.7518 101.435C62.1213 101.169 63.1865 100.94 63.9093 101.093C64.7462 101.245 72.1263 102.804 76.6913 105.543C76.7674 105.582 76.8815 105.62 76.9956 105.62C77.0337 105.62 77.1098 105.62 77.1478 105.582C77.6423 105.772 78.1749 105.886 78.7456 105.962C78.8977 106 79.0879 106 79.2401 106C80.6857 106 82.1313 105.049 83.3867 103.299C85.479 100.332 86.8104 95.1961 85.479 92.7234C85.2507 92.2669 84.8703 92.0006 84.4138 91.8865C83.729 91.7343 83.0443 92.0387 82.5497 92.3049C82.1313 91.5441 81.2563 90.3648 80.039 90.2126C79.164 90.0985 78.3651 90.6691 77.8706 91.1257C77.338 90.4789 76.3109 89.604 75.0555 89.8703C74.599 89.8322 74.4088 89.6801 74.2947 89.5659C73.686 88.8051 73.9903 86.3324 74.2947 84.5825C75.0175 80.4359 73.9142 76.5556 72.6969 73.8547C83.3106 72.4471 87.6854 66.4365 88.5984 65.029C89.4353 65.029 91.2994 64.9529 92.0982 64.3442C92.4026 64.154 92.5547 63.8497 92.5547 63.5073C92.5547 63.0888 92.2504 62.6323 91.908 62.29C92.8971 62.0997 94.0384 61.6432 94.1144 60.6922C94.1525 60.3498 94.0384 60.0455 93.8482 59.7792C93.4297 59.2847 92.6689 58.9803 92.0221 58.8662C92.4026 58.1814 92.821 57.1924 92.5928 56.4315C92.4787 56.0131 92.1743 55.6707 91.7559 55.5185C90.7668 55.1001 89.9298 55.5946 89.3592 56.2413C89.0929 55.5566 88.5603 54.8338 87.6854 54.8338C86.2778 54.8338 85.1366 57.4967 84.7562 58.5619C80.3053 61.5672 76.0446 62.2519 73.3817 62.328C75.7403 61.453 77.9467 60.3879 79.9249 59.1705C87.6473 54.4533 92.2124 47.5297 93.1634 39.1986C93.9623 32.0467 92.783 25.3514 89.7777 19.7212C92.5547 18.618 95.2177 14.8518 95.7883 10.9716ZM13.618 10.7813C13.3136 8.72709 13.4278 4.88486 17.6504 2.41215C19.7427 1.15677 21.835 0.852431 23.8132 1.4611C27.4272 2.56431 29.8618 6.52066 30.5846 7.85212C29.4434 8.46079 28.3402 9.14555 27.313 9.86834C26.7044 8.61296 25.1827 5.87395 22.9382 5.15116C21.7589 4.77074 20.5416 4.96095 19.3623 5.72178C17.5363 6.90108 16.7374 8.651 17.1559 10.6292C17.6504 12.8736 19.5525 14.9659 21.1503 15.6887C20.3894 16.6398 19.7047 17.6669 19.096 18.7321C16.6233 17.8191 14.1506 14.3192 13.618 10.7813ZM22.4056 14.2051C22.2535 14.3953 22.1013 14.5855 21.9111 14.7757C20.6557 14.3573 18.7156 12.4171 18.2591 10.3629C17.9167 8.84121 18.4873 7.58583 19.971 6.67283C20.884 6.1022 21.7209 5.95003 22.5578 6.21633C24.4979 6.86304 25.8674 9.56401 26.3239 10.5531C24.9164 11.6943 23.5849 12.9117 22.4056 14.2051ZM22.2915 89.9464C20.6938 91.3159 19.134 92.6093 17.3841 92.9517C15.9385 93.256 14.6071 92.8375 13.4658 91.8104C11.6778 90.1746 10.8409 87.3215 11.1833 84.0879C11.5637 80.5881 14.1125 78.4197 16.357 77.8491C17.3841 77.5828 18.2971 77.7349 18.6015 78.1914C19.0199 78.8001 19.134 79.3327 19.0199 79.8272C18.7917 80.6642 17.8026 81.5011 16.0907 82.338C15.1016 82.8325 14.531 83.8977 14.569 85.115C14.6451 86.4465 15.4059 87.5878 16.5092 87.9682C17.3461 88.2725 19.1721 88.4247 21.6448 85.7998C26.5902 80.512 32.6389 82.9847 34.0084 83.6314C34.0464 83.9357 34.0845 84.2781 34.1225 84.6205C34.3127 85.7998 34.541 87.2834 34.4649 88.3486C28.8727 84.3922 25.3729 87.3595 22.2915 89.9464ZM29.4053 104.935C27.8837 105.163 26.5522 103.641 25.8674 102.728C23.8132 99.7992 22.8241 95.2342 23.8512 93.3321C23.9653 93.1419 24.0414 93.1038 24.1556 93.0658C24.1936 93.0658 24.2316 93.0658 24.2697 93.0658C24.7262 93.0658 25.3729 93.4462 25.6392 93.6745C25.7914 93.7886 25.9435 93.8266 26.1337 93.7886C26.3239 93.7505 26.4381 93.6364 26.5142 93.4462C26.7044 92.9517 27.5032 91.5441 28.4543 91.43C29.0249 91.3539 29.7857 92.0767 30.052 92.4571C30.1662 92.6093 30.3564 92.6854 30.5466 92.6854C30.7368 92.6854 30.889 92.5712 31.0031 92.4191C31.0031 92.4191 31.9541 90.8594 33.0954 91.0876C33.7041 91.468 35.3779 95.7668 34.6171 99.7611C34.0845 102.728 32.3345 104.478 29.4053 104.935ZM77.2239 92.4191C77.338 92.5712 77.4902 92.6854 77.6804 92.6854C77.8706 92.6854 78.0608 92.6093 78.1749 92.4571C78.4793 92.0767 79.2401 91.3539 79.8107 91.43C80.7237 91.5441 81.5226 92.9136 81.7509 93.4462C81.8269 93.5984 81.9791 93.7125 82.1313 93.7886C82.2834 93.8266 82.4737 93.7886 82.6258 93.6745C82.9302 93.4462 83.691 92.9897 84.1475 93.0658C84.2236 93.1038 84.3377 93.1419 84.4518 93.3321C85.479 95.2342 84.4899 99.7992 82.4356 102.728C81.7889 103.641 80.4574 105.163 78.8977 104.935C75.9685 104.478 74.2186 102.728 73.648 99.7231C72.8871 95.7287 74.561 91.468 75.1696 91.0496C76.2728 90.8213 77.2239 92.381 77.2239 92.4191ZM85.479 59.4368C85.5931 59.3607 85.6692 59.2847 85.7072 59.1705C86.2778 57.5347 87.1908 56.0131 87.6093 56.0131C88.1038 56.0131 88.4462 57.1543 88.4843 57.763C88.5223 58.0293 88.7125 58.2195 88.9788 58.2575C89.2451 58.2956 89.4733 58.1434 89.5875 57.9151C89.5875 57.9151 90.3103 56.2413 91.2613 56.6217C91.3754 56.6598 91.4135 56.7359 91.4515 56.8119C91.6037 57.3065 90.995 58.4097 90.5766 59.0184C90.4624 59.1705 90.4244 59.3988 90.5005 59.589C90.5766 59.7792 90.7668 59.8933 90.957 59.9314C91.5656 60.0074 92.6308 60.2737 92.8971 60.5781C92.9352 60.6161 92.9352 60.6542 92.9352 60.6542C92.8971 60.9204 91.7559 61.3389 90.4624 61.377C90.2342 61.377 90.0059 61.5672 89.9298 61.7954C89.8538 62.0237 89.9679 62.29 90.1581 62.4041C90.6907 62.7465 91.2233 63.279 91.3374 63.5073C90.8048 63.8116 89.2071 63.9638 88.256 63.9258C88.0278 63.9258 87.8376 64.0399 87.7615 64.2301C87.7234 64.3062 83.5388 71.5722 71.7459 72.8656H71.7078C71.6698 72.8656 71.6698 72.8656 71.6317 72.8656C71.5937 72.8656 71.5937 72.8656 71.5937 72.9036H71.5557C71.5176 72.9036 71.5176 72.9417 71.5176 72.9417C71.5176 72.9417 71.4796 72.9417 71.4796 72.9797L71.4415 73.0177L71.4035 73.0558L71.3654 73.0938L71.3274 73.1319C71.3274 73.1319 71.3274 73.1699 71.2894 73.1699C71.2894 73.1699 71.2894 73.208 71.2513 73.208V73.246V73.284V73.3221C71.2513 73.3601 71.2513 73.3601 71.2513 73.3982C71.2513 73.4742 71.2894 73.5123 71.2894 73.5503C72.5067 76.1372 73.8382 80.0555 73.1154 84.3162C72.5447 87.6258 72.6208 89.3377 73.3436 90.2126C73.4958 90.4029 73.724 90.555 73.9523 90.7072C73.0012 92.2289 72.2404 95.4244 72.3545 98.1253C72.4306 99.9513 72.8491 101.473 73.6099 102.728C69.5394 101.055 65.1646 100.142 64.1375 99.9133C63.1865 99.7231 62.0072 99.9514 60.5235 100.256C58.8497 100.598 56.7954 101.017 54.2086 101.017C51.5837 101.017 49.5294 100.598 47.8936 100.256C46.41 99.9514 45.2307 99.7231 44.2797 99.9133C43.2145 100.142 38.8777 101.055 34.8073 102.728C35.5681 101.511 35.9866 99.9513 36.0626 98.1253C36.1768 95.4244 35.4159 92.2289 34.4649 90.7072C34.6931 90.5931 34.9214 90.4409 35.0736 90.2126C35.7964 89.2996 35.8724 87.6258 35.3018 84.3162C34.579 80.0935 35.9105 76.1372 37.1278 73.5503C37.1659 73.5123 37.1659 73.4362 37.1659 73.3982C37.1659 73.3601 37.1659 73.3601 37.1659 73.3221V73.284V73.246V73.208C37.1659 73.208 37.1659 73.1699 37.1278 73.1699C37.1278 73.1699 37.1278 73.1319 37.0898 73.1319L37.0517 73.0938L37.0137 73.0558L36.9757 73.0177L36.9376 72.9797L36.8996 72.9417L36.8615 72.9036H36.8235C36.8235 72.9036 36.7854 72.9036 36.7854 72.8656C36.7474 72.8656 36.7474 72.8656 36.7094 72.8656H36.6713C24.8023 71.6102 20.6177 64.3062 20.5796 64.2681C20.4655 64.0779 20.2753 63.9638 20.0851 63.9638C19.096 63.9638 17.5363 63.8497 17.0037 63.5453C17.1178 63.279 17.6504 62.7845 18.183 62.4421C18.3732 62.29 18.4873 62.0617 18.4112 61.8335C18.3352 61.6052 18.145 61.415 17.8787 61.415C16.5852 61.3389 15.4059 60.9585 15.4059 60.6922C15.4059 60.6922 15.4059 60.6542 15.444 60.6161C15.7103 60.2737 16.7754 60.0075 17.3841 59.9694C17.5743 59.9314 17.7645 59.8172 17.8406 59.627C17.9167 59.4368 17.9167 59.2086 17.7645 59.0564C17.3461 58.4477 16.7374 57.3445 16.8896 56.85C16.9276 56.7739 16.9657 56.6978 17.0798 56.6598C17.9928 56.2793 18.7156 57.9532 18.7536 57.9532C18.8677 58.1814 19.096 58.3336 19.3623 58.2956C19.6286 58.2575 19.8188 58.0673 19.8568 57.801C19.9329 57.1924 20.2373 56.0511 20.7318 56.0511C21.1503 56.0511 22.0633 57.5728 22.6339 59.2086C22.6719 59.3227 22.748 59.4368 22.8621 59.4749C30.1281 64.4964 36.8615 63.5453 37.8887 63.3551C40.057 64.0018 42.3015 64.5344 44.6221 64.9148C43.5949 68.0343 39.6005 81.5772 44.6221 88.691C46.6383 91.5441 49.8718 92.9897 54.2086 92.9897C58.5454 92.9897 61.7789 91.5441 63.7951 88.691C68.8166 81.5772 64.8223 68.0723 63.7951 64.9148C66.1157 64.5344 68.3982 64.0018 70.5285 63.3551C71.4796 63.5073 78.213 64.4583 85.479 59.4368ZM54.1325 65.6757C57.0237 65.6757 59.8388 65.4855 62.5397 65.067C63.3767 67.6919 67.4852 81.2728 62.768 88.0062C60.98 90.555 58.0889 91.8484 54.1325 91.8484C50.1762 91.8484 47.285 90.555 45.497 88.0062C40.7418 81.2728 44.8503 67.6919 45.7253 65.067C48.4262 65.4474 51.2413 65.6757 54.1325 65.6757ZM91.9461 39.0845C89.9679 56.6598 71.5557 64.5344 54.1325 64.5344C36.7474 64.5344 18.2971 56.6598 16.3189 39.0845C15.2918 29.7262 17.7265 21.1668 23.2806 14.9659C29.7857 7.69996 40.4755 3.81969 54.1325 3.81969C67.7895 3.81969 78.4793 7.66192 84.9844 14.9659C90.5385 21.1668 92.9732 29.7262 91.9461 39.0845ZM85.8594 14.2051C84.6801 12.8736 83.3486 11.6563 81.903 10.5531C82.3595 9.52596 83.729 6.86304 85.6692 6.21633C86.5061 5.95003 87.3811 6.1022 88.256 6.67283C89.7016 7.62387 90.2722 8.84121 89.9679 10.3629C89.5114 12.4171 87.5713 14.3192 86.3159 14.7757C86.1637 14.5855 86.0115 14.3953 85.8594 14.2051ZM89.131 18.7321C88.5223 17.6669 87.8375 16.6778 87.0767 15.6887C88.7125 14.9279 90.6146 12.8356 91.0711 10.6292C91.4896 8.651 90.7287 6.90108 88.8647 5.72178C87.6854 4.96095 86.468 4.7327 85.2887 5.15116C83.0443 5.87395 81.5226 8.61296 80.9139 9.86834C79.8868 9.14555 78.7836 8.46079 77.6423 7.85212C78.3651 6.48262 80.7998 2.56431 84.4138 1.4611C86.43 0.852431 88.5223 1.15677 90.6146 2.41215C94.8372 4.88486 94.9514 8.72709 94.647 10.7813C94.1145 14.3192 91.6417 17.8191 89.131 18.7321Z" fill="#262425"/>
<path d="M77.7945 17.8571C73.1154 14.5855 68.5123 13.4062 64.1755 14.3192C58.7736 15.4604 55.3498 19.4548 54.1325 21.1287C52.9152 19.4929 49.4914 15.4604 44.0895 14.3192C39.7527 13.4062 35.1496 14.5855 30.4705 17.8571C23.661 22.6123 20.884 31.5902 23.5469 40.1496C25.1827 45.3233 28.5684 49.7361 33.3617 52.9316C38.8777 56.5836 45.8394 58.4477 54.0945 58.4477C62.3495 58.4477 69.3492 56.5836 74.8272 52.9316C79.6205 49.7361 83.0443 45.3233 84.642 40.1496C87.4191 31.5902 84.604 22.6123 77.7945 17.8571ZM83.6149 39.8072C80.1911 50.7632 69.159 57.2684 54.1325 57.2684C39.106 57.2684 28.0739 50.7252 24.6501 39.8072C22.1013 31.7043 24.7262 23.259 31.1552 18.7701C35.5681 15.6887 39.8668 14.5474 43.8612 15.3844C50.062 16.6778 53.5999 22.308 53.638 22.3841L53.676 22.4221L53.714 22.4601L53.7521 22.4982L53.7901 22.5362H53.8282C53.8282 22.5362 53.8662 22.5362 53.8662 22.5743H53.9042H53.9423H53.9803H54.0184H54.0564H54.0945H54.1325H54.1705C54.1705 22.5743 54.2086 22.5743 54.2086 22.5362H54.2466L54.2847 22.4982L54.3227 22.4601L54.3607 22.4221L54.3988 22.3841C54.4368 22.346 57.9747 16.6778 64.1755 15.3844C68.208 14.5474 72.4686 15.6887 76.8815 18.7701C83.5388 23.259 86.1637 31.7043 83.6149 39.8072Z" fill="#262425"/>
<path d="M69.0449 31.8185C67.8276 31.8185 66.8385 33.226 66.8385 34.976C66.8385 36.7259 67.8276 38.1334 69.0449 38.1334C70.2623 38.1334 71.2514 36.7259 71.2514 34.976C71.2514 33.226 70.2623 31.8185 69.0449 31.8185Z" fill="#262425"/>
<path d="M70.4144 26.797C70.1481 26.6829 69.8818 26.5688 69.6155 26.4546C69.3492 26.3405 69.0449 26.3405 68.7405 26.3025C68.3601 26.2644 67.9797 26.2644 67.6373 26.3025C67.4091 26.3025 67.1808 26.3785 66.9526 26.4927C66.8004 26.5687 66.6863 26.6829 66.5721 26.835C66.3439 27.1394 66.2678 27.4437 66.3059 27.8241C66.3439 28.2426 66.5721 28.623 66.9526 28.8132C67.2949 29.0034 67.5993 29.0034 67.9416 28.9654C67.8656 28.9654 67.7895 28.9654 67.7514 29.0034C68.0938 28.9654 68.4362 28.9654 68.8166 29.0034C68.9307 29.0034 69.0829 29.0415 69.197 29.0415C69.0829 29.0415 68.9688 29.0034 68.8547 29.0034C69.197 29.0415 69.5014 29.1556 69.8057 29.2697C69.9959 29.3458 70.1861 29.4599 70.3763 29.536C70.5665 29.6121 70.7187 29.7262 70.9089 29.7643C71.1372 29.8403 71.3654 29.8403 71.5937 29.8023C71.86 29.7643 72.1262 29.4599 72.1643 29.2317C72.3165 28.585 71.936 28.0143 71.4795 27.5959C71.2132 27.2535 70.8328 26.9872 70.4144 26.797Z" fill="#262425"/>
<path d="M60.1051 44.4864C59.8007 44.3723 59.4964 44.4864 59.3442 44.7527C59.3062 44.8288 58.4312 46.6929 56.4911 46.6929C54.7031 46.6929 54.7031 46.0081 54.7031 44.3723V41.5572C54.7031 41.5192 54.7031 41.4811 54.7031 41.4051C57.29 40.6823 58.8116 39.7312 59.2682 38.5139C59.5725 37.677 59.3823 36.802 58.7356 35.889C57.4041 34.0249 55.9585 34.9379 55.0835 35.4705C54.7412 35.6988 54.3608 35.927 54.1325 35.927C53.9043 35.927 53.5238 35.6988 53.1815 35.4705C52.3065 34.9379 50.8609 34.0249 49.5294 35.889C48.8827 36.802 48.6925 37.715 48.9969 38.5139C49.4534 39.7693 50.975 40.7203 53.5619 41.4051C53.5619 41.4431 53.5619 41.4811 53.5619 41.5572V44.3723C53.5619 46.0081 53.5619 46.6929 51.7739 46.6929C49.8338 46.6929 48.9588 44.8288 48.9208 44.7527C48.8067 44.4484 48.4643 44.3343 48.1599 44.4864C47.8556 44.6006 47.7415 44.9429 47.8936 45.2473C47.9317 45.3614 49.111 47.8341 51.812 47.8341C53.0293 47.8341 53.7521 47.4917 54.1705 46.9972C54.589 47.4917 55.2738 47.8341 56.5291 47.8341C59.2301 47.8341 60.3714 45.3614 60.4474 45.2473C60.5235 44.981 60.3714 44.6386 60.1051 44.4864Z" fill="#262425"/>
<path d="M21.1883 15.7267C20.6177 15.4604 20.009 15.0039 19.4384 14.4713C18.9439 15.1561 18.4493 15.8028 18.0309 16.4875C17.8026 16.8679 17.5744 17.2864 17.3842 17.7049C17.9548 18.1614 18.5254 18.5418 19.1341 18.732C19.7427 17.6668 20.4275 16.6777 21.1883 15.7267Z" fill="#B05238"/>
<path d="M29.8619 6.71082C29.5195 6.90102 29.1771 7.05319 28.9108 7.16732C28.0739 7.54773 27.275 7.96619 26.4761 8.38465C26.8185 8.95528 27.0848 9.48787 27.275 9.86829C28.3021 9.14549 29.4054 8.46074 30.5466 7.85207C30.4325 7.58578 30.1662 7.16732 29.8619 6.71082Z" fill="#B05238"/>
<path d="M81.7128 8.49879C80.8379 8.00425 79.9629 7.54775 79.0499 7.16733C78.8597 7.09124 78.5934 6.93908 78.3271 6.82495C78.0608 7.24341 77.8326 7.62383 77.7184 7.89012C78.8597 8.49879 79.9629 9.18354 80.99 9.90634C81.1422 9.52592 81.3705 9.03138 81.7128 8.49879Z" fill="#B05238"/>
<path d="M90.6527 17.8571C90.4624 17.3625 90.2342 16.906 89.9679 16.4876C89.5494 15.8409 89.131 15.2322 88.6745 14.6235C88.1419 15.1181 87.6093 15.4985 87.0767 15.7267C87.8376 16.6778 88.5223 17.7049 89.131 18.7701C89.6636 18.5418 90.1581 18.2375 90.6527 17.8571Z" fill="#B05238"/>
<path d="M36.5572 72.9036C36.5952 72.9036 36.5952 72.9036 36.5572 72.9036C36.5952 72.9036 36.6333 72.9036 36.6333 72.9416C36.6713 72.9416 36.6713 72.9416 36.6713 72.9797H36.7094L36.7474 73.0177C36.7474 73.0177 36.7855 73.0177 36.7855 73.0558C37.3941 71.6482 36.405 69.7842 34.9214 69.3277C34.0845 69.0614 33.0954 69.2135 32.1824 69.0233C31.0411 68.7951 29.976 68.4527 28.9108 68.0342C26.4381 67.0832 24.3458 65.7517 22.1394 64.3061C21.1122 63.6214 20.3894 62.8986 19.1721 63.1268C18.4873 63.279 17.7265 63.5833 16.9657 63.6214C17.5743 63.9257 19.058 64.0398 19.971 64.0018C20.1992 64.0018 20.3894 64.1159 20.4655 64.3061C20.6177 64.3061 24.8023 71.6102 36.5572 72.9036Z" fill="#B05238"/>
<path d="M89.131 63.0889C87.9137 62.8606 87.1909 63.5834 86.1637 64.2682C83.9573 65.7138 81.865 67.0833 79.3923 67.9963C78.3271 68.4147 77.262 68.7571 76.1207 68.9854C75.2077 69.1756 74.2186 69.0234 73.3817 69.2897C71.9361 69.7082 70.909 71.5722 71.4796 72.9797C71.4796 72.9797 71.4796 72.9797 71.5176 72.9797H71.5557C71.5557 72.9797 71.5937 72.9797 71.5937 72.9417C71.6318 72.9417 71.6318 72.9417 71.6698 72.9417H71.7079C83.5008 71.6483 87.6474 64.3823 87.7235 64.3062C87.8376 64.116 88.0278 64.0019 88.218 64.0019C89.169 64.0019 90.6527 63.8878 91.2613 63.6215C90.5005 63.5073 89.7777 63.203 89.131 63.0889Z" fill="#B05238"/>
<path d="M25.6011 85.1912C23.3186 86.3705 21.835 88.2725 19.7047 89.604C17.7265 90.8594 14.8734 91.0876 13.3136 88.9953C12.3626 87.7019 11.2974 85.6477 11.2213 83.8217C11.2213 83.9358 11.1833 84.0119 11.1833 84.0879C10.8409 87.2835 11.6778 90.1746 13.4658 91.8104C14.6071 92.8376 15.9385 93.218 17.3841 92.9517C19.134 92.6093 20.6557 91.3159 22.2915 89.9464C25.3729 87.3215 28.8727 84.3923 34.4268 88.3867C34.4649 87.5878 34.3508 86.5987 34.2366 85.6477C31.802 84.0119 27.9597 84.0119 25.6011 85.1912Z" fill="#B05238"/>
<path d="M21.6068 85.8379C19.1341 88.4628 17.3461 88.3486 16.4711 88.0063C15.3679 87.5878 14.6071 86.4846 14.531 85.1531C14.4549 83.8977 15.0636 82.8326 16.0527 82.3761C17.7645 81.5392 18.7536 80.7022 18.9819 79.8653C19.096 79.3708 18.9819 78.8382 18.5634 78.2295C18.221 77.773 17.3461 77.6208 16.319 77.8871C15.0636 78.1915 13.7321 79.0284 12.705 80.2838C13.7702 79.3708 14.9114 78.5338 16.2809 78.8001C17.8787 79.1045 17.1178 80.3218 16.357 81.2348C15.3679 82.4141 13.9604 83.1369 13.5799 84.7727C12.9332 87.3976 15.3299 89.4518 17.7265 88.9953C20.6557 88.4247 22.1013 85.7618 24.4599 84.088C25.3729 83.4412 26.5142 83.0228 27.6174 82.7945C28.3402 82.6424 29.101 82.6804 29.8618 82.5663C27.3891 82.3761 24.3458 82.9087 21.6068 85.8379Z" fill="#D88965"/>
<path d="M20.5036 57.9912C21.0742 57.6108 21.6068 57.7629 22.1393 58.0292C21.6068 56.888 20.9981 55.975 20.6557 55.975C20.1612 55.975 19.8188 57.1162 19.7808 57.7249C19.7427 57.9912 19.5525 58.1814 19.2862 58.2194C19.0199 58.2575 18.7917 58.1053 18.6775 57.8771C18.6775 57.8771 17.9548 56.2032 17.0037 56.5836C16.8896 56.6217 16.8515 56.6978 16.8135 56.7739C16.7374 57.0401 16.8896 57.4966 17.0798 57.9151C17.308 57.839 17.5743 57.8771 17.8406 58.0673C18.4113 58.5238 18.8678 59.4368 19.2862 60.0074C19.5145 59.3987 19.9329 58.3716 20.5036 57.9912Z" fill="#D88965"/>
<path d="M90.0821 58.1053C90.4625 57.801 90.8809 57.8771 91.0711 58.1053C91.3374 57.6108 91.5276 57.0782 91.4135 56.7739C91.3755 56.6978 91.3374 56.6217 91.2233 56.5836C90.3103 56.2032 89.5875 57.8771 89.5495 57.8771C89.4353 58.1053 89.2071 58.2575 88.9408 58.2194C88.6745 58.1814 88.4843 57.9912 88.4463 57.7249C88.3702 57.1162 88.0658 55.975 87.5713 55.975C87.267 55.975 86.6963 56.7739 86.2018 57.839C86.5822 57.6869 87.0007 57.6869 87.4191 57.9531C87.9898 58.3336 88.4082 59.3607 88.5984 60.0074C89.0169 59.4748 89.5114 58.5618 90.0821 58.1053Z" fill="#D88965"/>
<path d="M60.4474 100.37C61.9311 100.065 63.1104 99.8372 64.0614 100.027C65.1266 100.256 69.4633 101.169 73.5338 102.843C72.773 101.625 72.3545 100.065 72.2784 98.2395C72.2404 97.5547 72.2784 96.87 72.3545 96.1852C70.4144 95.4624 68.4362 94.9298 66.42 94.3592C64.9744 93.9788 63.3767 93.5603 61.893 93.7886C60.4855 94.0168 59.0399 94.8157 57.6323 95.1581C55.8063 95.6526 54.3607 95.8048 52.4967 95.5005C50.5566 95.1961 48.6545 94.8538 46.7904 94.2831C45.535 93.8647 44.622 93.5984 43.3286 93.9788C41.6167 94.4733 40.1712 95.6146 38.4973 96.1472C37.9647 96.3374 37.0137 96.6417 35.9866 96.87C36.0246 97.3265 36.0246 97.783 35.9866 98.2395C35.9105 100.065 35.492 101.587 34.7312 102.843C38.8016 101.169 43.1765 100.256 44.2036 100.027C45.1546 99.8372 46.3339 100.065 47.8176 100.37C49.4914 100.712 51.5457 101.131 54.1325 101.131C56.7574 101.131 58.8116 100.712 60.4474 100.37Z" fill="#B05238"/>
<path d="M25.6772 95.5005C25.6772 95.4625 25.6773 95.4244 25.6392 95.3864C25.6012 95.2342 25.5631 95.0821 25.487 94.9299C25.411 94.8158 25.2968 94.7016 25.2207 94.5875C25.1066 94.4734 24.9925 94.4353 24.8784 94.3973C24.7262 94.3593 24.6121 94.3593 24.4599 94.3973C24.1936 94.4734 24.0034 94.6636 23.9273 94.9299C23.8893 95.0821 23.8132 95.2342 23.8132 95.3864C23.8132 95.5386 23.8512 95.7288 23.8893 95.8809C23.9273 96.0331 23.9273 96.1853 24.0415 96.3374C24.1175 96.4135 24.1556 96.5276 24.2317 96.6037C24.3458 96.7179 24.4599 96.7939 24.6121 96.832C24.6501 96.832 24.6882 96.832 24.7262 96.832C24.8403 96.87 24.9545 96.87 25.0686 96.832C25.1827 96.7939 25.2588 96.7559 25.3729 96.6798C25.449 96.6037 25.5251 96.5276 25.6012 96.4516C25.6392 96.3755 25.6392 96.2994 25.6772 96.2614C25.6772 96.2233 25.7153 96.1853 25.7153 96.1472C25.7533 96.0711 25.7533 95.957 25.7533 95.8809C25.7153 95.6907 25.7153 95.5766 25.6772 95.5005Z" fill="#FD9D60"/>
<path d="M29.2912 94.5494C29.2912 94.5114 29.2531 94.4733 29.2531 94.4353C29.2151 94.3212 29.1771 94.2451 29.139 94.131C29.101 94.0549 29.0249 93.9408 28.9488 93.9027C28.9108 93.8647 28.8727 93.8647 28.8727 93.8266C28.7206 93.7125 28.5684 93.5984 28.3782 93.5223C28.2641 93.4843 28.1499 93.4843 27.9978 93.5223C27.8836 93.5223 27.7695 93.5603 27.6554 93.6364C27.5793 93.6745 27.5413 93.7506 27.4652 93.7886C27.3511 93.9027 27.275 94.0549 27.2369 94.2071C27.1989 94.2451 27.1989 94.2831 27.1989 94.3592C27.1989 94.3973 27.1989 94.4733 27.1989 94.5114V94.5494C27.1989 94.5875 27.1989 94.6255 27.1989 94.6636C27.1989 94.8538 27.2369 95.0059 27.275 95.1581C27.313 95.3103 27.3511 95.4624 27.4271 95.6526C27.4652 95.6907 27.4652 95.7287 27.5032 95.7668C27.5413 95.8048 27.5413 95.8429 27.5793 95.8809C27.6554 95.995 27.7315 96.0711 27.8836 96.1472C27.8836 96.1472 27.9217 96.1472 27.9217 96.1852C27.9597 96.1852 27.9597 96.2233 27.9978 96.2233H28.0358C28.0738 96.2613 28.1119 96.2613 28.188 96.2613C28.3401 96.2994 28.5303 96.2994 28.6825 96.2613C28.8727 96.2233 29.0249 96.1091 29.139 95.957C29.1771 95.9189 29.1771 95.9189 29.2151 95.8809C29.2531 95.8429 29.2912 95.8048 29.2912 95.7668C29.3673 95.6146 29.4434 95.4244 29.4434 95.2342C29.4434 95.1961 29.4434 95.1581 29.4434 95.082C29.4053 94.8538 29.3673 94.7016 29.2912 94.5494Z" fill="#FD9D60"/>
<path d="M33.3617 94.7397C33.3617 94.6256 33.3617 94.5495 33.3617 94.4353C33.3617 94.3212 33.3617 94.2451 33.3237 94.131C33.3237 94.0549 33.2856 93.9408 33.2856 93.8647C33.2856 93.8267 33.2476 93.7506 33.2095 93.7126C33.1715 93.6745 33.1715 93.5984 33.1334 93.5604C33.0954 93.5223 33.0954 93.4843 33.0574 93.4463C32.9052 93.218 32.6769 93.0658 32.4106 93.0278C32.2965 92.9898 32.1824 92.9898 32.0683 93.0278C31.9161 93.0658 31.7639 93.1419 31.6879 93.2561C31.5357 93.4463 31.3835 93.6365 31.3074 93.8647C31.2694 94.0169 31.2694 94.2451 31.2314 94.4353C31.2314 94.5495 31.2314 94.6636 31.2694 94.7397C31.3074 95.006 31.3074 95.2723 31.4976 95.5005C31.6118 95.6527 31.7259 95.7668 31.8781 95.8809C31.9541 95.919 32.0302 95.957 32.1063 95.9951C32.2585 96.0331 32.3726 96.0331 32.5248 95.9951C32.6009 95.9951 32.715 95.957 32.7911 95.919C32.8672 95.8809 32.9432 95.8429 33.0193 95.8049C33.0954 95.7668 33.1715 95.6907 33.2095 95.6146C33.2856 95.5005 33.3617 95.3864 33.3997 95.2723C33.3617 95.1201 33.3617 94.9299 33.3617 94.7397Z" fill="#FD9D60"/>
<path d="M82.6258 95.5005C82.6258 95.4625 82.6258 95.4244 82.6639 95.3864C82.7019 95.2342 82.74 95.0821 82.816 94.9299C82.8921 94.8158 83.0062 94.7016 83.0823 94.5875C83.1965 94.4734 83.3106 94.4353 83.4247 94.3973C83.5769 94.3593 83.691 94.3593 83.8432 94.3973C84.1095 94.4734 84.2997 94.6636 84.3758 94.9299C84.4138 95.0821 84.4899 95.2342 84.4899 95.3864C84.4899 95.5386 84.4518 95.7288 84.4138 95.8809C84.3757 96.0331 84.3758 96.1853 84.2616 96.3374C84.1855 96.4135 84.1475 96.5276 84.0714 96.6037C83.9573 96.7179 83.8432 96.7939 83.691 96.832C83.653 96.832 83.6149 96.832 83.5769 96.832C83.4627 96.87 83.3486 96.87 83.2345 96.832C83.1204 96.7939 83.0443 96.7559 82.9302 96.6798C82.8541 96.6037 82.778 96.5276 82.7019 96.4516C82.6639 96.3755 82.6639 96.2994 82.6258 96.2614C82.6258 96.2233 82.5878 96.1853 82.5878 96.1472C82.5497 96.0711 82.5497 95.957 82.5497 95.8809C82.5497 95.6907 82.5878 95.5766 82.6258 95.5005Z" fill="#FD9D60"/>
<path d="M78.9738 94.5494C78.9738 94.5114 79.0119 94.4733 79.0119 94.4353C79.0499 94.3212 79.0879 94.2451 79.126 94.131C79.164 94.0549 79.2401 93.9408 79.3162 93.9027C79.3542 93.8647 79.3923 93.8647 79.3923 93.8266C79.5444 93.7125 79.6966 93.5984 79.8868 93.5223C80.001 93.4843 80.1151 93.4843 80.2672 93.5223C80.3814 93.5223 80.4955 93.5603 80.6096 93.6364C80.6857 93.6745 80.7237 93.7506 80.7998 93.7886C80.914 93.9027 80.99 94.0549 81.0281 94.2071C81.0661 94.2451 81.0661 94.2831 81.0661 94.3592C81.0661 94.3973 81.0661 94.4733 81.0661 94.5114V94.5494C81.0661 94.5875 81.0661 94.6255 81.0661 94.6636C81.0661 94.8538 81.0281 95.0059 80.99 95.1581C80.952 95.3103 80.914 95.4624 80.8379 95.6526C80.7998 95.6907 80.7998 95.7287 80.7618 95.7668C80.7237 95.8048 80.7237 95.8429 80.6857 95.8809C80.6096 95.995 80.5335 96.0711 80.3814 96.1472C80.3814 96.1472 80.3433 96.1472 80.3433 96.1852C80.3053 96.1852 80.3053 96.2233 80.2672 96.2233H80.2292C80.1912 96.2613 80.1531 96.2613 80.077 96.2613C79.9249 96.2994 79.7347 96.2994 79.5825 96.2613C79.3923 96.2233 79.2401 96.1091 79.126 95.957C79.0879 95.9189 79.088 95.9189 79.0499 95.8809C79.0119 95.8429 78.9738 95.8048 78.9738 95.7668C78.8977 95.6146 78.8217 95.4244 78.8217 95.2342C78.8217 95.1961 78.8217 95.1581 78.8217 95.082C78.8597 94.8538 78.9358 94.7016 78.9738 94.5494Z" fill="#FD9D60"/>
<path d="M74.9414 94.7397C74.9414 94.6256 74.9414 94.5495 74.9414 94.4353C74.9414 94.3212 74.9414 94.2451 74.9794 94.131C74.9794 94.0549 75.0174 93.9408 75.0174 93.8647C75.0174 93.8267 75.0555 93.7506 75.0935 93.7126C75.1316 93.6745 75.1316 93.5984 75.1696 93.5604C75.2077 93.5223 75.2077 93.4843 75.2457 93.4463C75.3979 93.218 75.6261 93.0658 75.8924 93.0278C76.0065 92.9898 76.1207 92.9898 76.2348 93.0278C76.387 93.0658 76.5391 93.1419 76.6152 93.2561C76.7674 93.4463 76.9195 93.6365 76.9956 93.8647C77.0337 94.0169 77.0337 94.2451 77.0717 94.4353C77.0717 94.5495 77.0717 94.6636 77.0337 94.7397C76.9956 95.006 76.9956 95.2723 76.8054 95.5005C76.6913 95.6527 76.5772 95.7668 76.425 95.8809C76.3489 95.919 76.2728 95.957 76.1967 95.9951C76.0446 96.0331 75.9305 96.0331 75.7783 95.9951C75.7022 95.9951 75.5881 95.957 75.512 95.919C75.4359 95.8809 75.3598 95.8429 75.2837 95.8049C75.2077 95.7668 75.1316 95.6907 75.0935 95.6146C75.0174 95.5005 74.9414 95.3864 74.9033 95.2723C74.9414 95.1201 74.9414 94.9299 74.9414 94.7397Z" fill="#FD9D60"/>
<path d="M55.0835 86.2563C55.0835 86.1421 55.0835 85.99 55.0455 85.8758C55.0074 85.7998 55.0074 85.7237 54.9694 85.6476C54.9314 85.4954 54.8553 85.3433 54.7792 85.2291C54.7412 85.153 54.7031 85.115 54.6651 85.0389C54.589 84.9248 54.5129 84.8487 54.3988 84.8107C54.3227 84.7726 54.2466 84.7346 54.1705 84.7346H54.1325C53.9803 84.6965 53.8281 84.6965 53.676 84.7346C53.5238 84.7726 53.4097 84.8487 53.2956 84.9628C53.1814 85.077 53.0673 85.2291 53.0293 85.4193C52.9912 85.5335 52.9912 85.6476 52.9912 85.7617C52.9912 85.8378 52.9532 85.9139 52.9532 86.028C52.9532 86.1421 52.9912 86.2563 52.9912 86.4084C52.9912 86.5226 53.0293 86.5606 53.0293 86.6747C53.0673 86.7888 53.1054 86.903 53.1814 87.0171C53.2195 87.0932 53.2956 87.1693 53.3336 87.2073C53.4097 87.3214 53.5238 87.3595 53.676 87.4356C53.7521 87.4736 53.8281 87.5116 53.9423 87.5116C54.0944 87.5497 54.2086 87.5497 54.3607 87.5116C54.5129 87.4736 54.6651 87.3595 54.8172 87.2453C54.9314 87.1693 54.9694 87.0551 55.0455 86.903C55.1216 86.7888 55.1216 86.6367 55.1216 86.5225C55.0835 86.3323 55.0835 86.2943 55.0835 86.2563Z" fill="#FD9D60"/>
<path d="M61.8931 66.0561C62.1593 65.8659 62.4256 65.6376 62.6919 65.4094C62.6539 65.2572 62.6158 65.1431 62.5778 65.067C59.8388 65.4474 57.0237 65.6757 54.1706 65.6757C51.2794 65.6757 48.4643 65.4855 45.7633 65.067C45.7633 65.1051 45.7253 65.1811 45.7253 65.2572C49.9099 68.1104 57.6324 69.2516 61.8931 66.0561Z" fill="#FD9D60"/>
<path d="M21.4546 12.265C21.1502 12.6074 20.6937 13.178 20.2753 13.6726C20.8459 14.2052 21.4546 14.6236 21.9491 14.7758C22.1013 14.5856 22.2534 14.3954 22.4437 14.2052C23.6229 12.8737 24.9544 11.6564 26.4 10.5532C26.2478 10.1727 25.9435 9.56407 25.525 8.91736C24.9925 9.25973 24.4599 9.6782 24.0414 9.98253C23.1284 10.7053 22.2154 11.3901 21.4546 12.265Z" fill="#FD9D60"/>
<path d="M87.381 12.4171C86.5822 11.4661 84.1855 9.41181 82.816 8.84119C82.3976 9.52594 82.0552 10.1726 81.903 10.5531C83.3486 11.6563 84.6801 12.8736 85.8594 14.2051C86.0115 14.3953 86.1637 14.5855 86.3539 14.7757C86.8865 14.5855 87.5712 14.129 88.1799 13.4823C87.9136 13.1019 87.6854 12.7595 87.381 12.4171Z" fill="#FD9D60"/>
<path d="M38.7636 40.9484C38.7636 42.4321 36.8996 43.6114 34.6171 43.6114C32.3346 43.6114 30.4705 42.4321 30.4705 40.9484C30.4705 39.4648 32.3346 38.2855 34.6171 38.2855C36.8996 38.2855 38.7636 39.4648 38.7636 40.9484Z" fill="#FF6B60"/>
<path d="M77.2239 40.9484C77.2239 42.4321 75.3599 43.6114 73.0773 43.6114C70.7948 43.6114 68.9308 42.4321 68.9308 40.9484C68.9308 39.4648 70.7948 38.2855 73.0773 38.2855C75.3979 38.2855 77.2239 39.4648 77.2239 40.9484Z" fill="#FF6B60"/>
<path d="M54.5 3.50006V101.5C51.1478 101.475 48.9706 101.157 45 100.5C38.6864 101.525 35.5958 102.605 30.5 105C24.5579 106.607 21.486 92.9639 24 92.5001C26.5141 92.0362 26 93.0001 26 93.0001C27.4341 90.7517 28.3632 90.2099 30.5 92.0001C31.1715 90.8058 31.8979 90.5619 33.5 90.5001L35 89.5001C30.3278 85.8833 27.5952 86.069 22.5 90.5001C17.5729 94.9061 15.1768 94.756 11.5 90.0001C10.3712 86.6971 10.3341 84.7347 11.5 81.0001C15.2453 77.0978 17.1506 75.8246 19.5 78.5001C19.5234 80.7358 18.5042 81.8042 15.5 83.5001C14.571 85.7982 15.2801 86.5568 17.5 87.5001C19.5775 86.749 20.8825 85.8922 23.5 83.5001C27.7909 81.466 30.2005 81.5207 34.5 83.0001C34.4897 79.5 34.8884 77.3964 36 73.5001C28.5147 72.3117 24.9577 70.4386 20 64.5001L16.5 63.5001L17.5 62.0001L15 61.0001V60.0001L17 59.5001L16 56.5001L17.5 56.0001L19 57.5001L20.5 55.5001L23 58.5001C22.6949 60.4604 38.5 64.1238 37 62.5C35.5 60.8762 28.5 60.0616 26 57C23.5 53.9384 17 51.5 16 40C15.5579 34.9154 15.2978 30.2532 16.5 27L17.4405 24.4136C17.8694 23.218 18.1932 22.3015 18.5 21.5C18.7874 20.7491 19.7255 19.9535 19 19.5001C11 14.5 11 6.00013 17 2.50006C23 -1.00001 26.2174 0.785613 31.5 8.00006C40.2101 4.20932 45.2879 3.53461 54.5 3.50006Z" fill="white"/>
<path d="M54.1307 65.5981C44.4007 65.5981 35.279 63.2797 28.4376 59.0988C20.7221 54.3859 16.1612 47.4686 15.211 39.1449C14.1468 29.453 16.6933 20.5973 22.4324 14.174C29.1598 6.64857 40.1439 2.6958 54.1307 2.6958C54.4347 2.6958 54.7008 2.96185 54.7008 3.26591C54.7008 3.56997 54.4347 3.83602 54.1307 3.83602C40.448 3.83602 29.8059 7.67478 23.3066 14.9722C17.7955 21.1294 15.3251 29.6811 16.3513 39.0309C18.3276 56.5904 36.7232 64.4579 54.1307 64.4579C54.4347 64.4579 54.7008 64.7239 54.7008 65.028C54.7008 65.3321 54.4347 65.5981 54.1307 65.5981Z" fill="#262425"/>
<path d="M19.4299 19.9511C19.3918 19.9511 19.3538 19.9511 19.2778 19.9511C16.1612 19.191 13.1206 15.1622 12.5125 10.9434C12.1704 8.58692 12.2845 4.25407 17.0734 1.44152C19.4679 -0.00276445 21.8623 -0.344831 24.1428 0.339302C29.0077 1.82159 31.7443 7.56072 31.8583 7.78876C32.0103 8.09282 31.8583 8.39688 31.5922 8.54891C31.3262 8.70094 30.9841 8.54891 30.8321 8.28286C30.7941 8.24485 28.2096 2.77178 23.8387 1.40351C21.8623 0.833399 19.7719 1.13746 17.6815 2.3917C13.4627 4.9002 13.3487 8.70094 13.6527 10.7533C14.1848 14.4781 16.9214 18.1648 19.5819 18.8109C19.8859 18.8869 20.076 19.191 20 19.4951C19.9239 19.7611 19.6959 19.9511 19.4299 19.9511Z" fill="#262425"/>
<path d="M22.1664 15.9603C22.1284 15.9603 22.0904 15.9603 22.0904 15.9603C20.342 15.6943 17.7955 13.2618 17.2254 10.6013C16.8073 8.62488 17.5675 6.87654 19.4298 5.69831C20.6081 4.93816 21.8243 4.71011 23.0025 5.12819C25.9291 6.07838 27.6014 10.3352 27.6394 10.5253C27.7535 10.8293 27.6014 11.1334 27.2974 11.2474C26.9933 11.3614 26.6893 11.2094 26.5752 10.9053C26.5752 10.8673 25.0549 6.95255 22.6225 6.1924C21.7863 5.92635 20.9121 6.07838 20.038 6.64849C18.5937 7.59868 18.0236 8.81492 18.3276 10.3352C18.7837 12.5777 21.0261 14.6301 22.2424 14.8201C22.5464 14.8581 22.7745 15.1622 22.7365 15.4662C22.6605 15.7703 22.4324 15.9603 22.1664 15.9603Z" fill="#262425"/>
<path d="M54.1306 58.3767C45.883 58.3767 38.8897 56.5143 33.4166 52.8656C28.6276 49.673 25.207 45.2641 23.6107 40.0951C20.9121 31.5434 23.6867 22.5737 30.49 17.8227C35.1649 14.5541 39.7638 13.3759 44.0967 14.288C50.786 15.6943 54.4347 21.5475 54.5867 21.7755C54.7388 22.0416 54.6627 22.3836 54.3967 22.5737C54.1306 22.7257 53.7886 22.6497 53.5985 22.3836C53.5605 22.3456 50.0258 16.6825 43.8306 15.3902C39.8018 14.5541 35.545 15.6943 31.1361 18.7729C24.7129 23.2198 22.1284 31.6954 24.6369 39.791C28.0575 50.7372 39.0797 57.2364 54.0926 57.2364C54.3967 57.2364 54.6627 57.5025 54.6627 57.8066C54.6627 58.1106 54.4347 58.3767 54.1306 58.3767Z" fill="#262425"/>
<path d="M54.1307 92.8495C49.7978 92.8495 46.5672 91.4052 44.5528 88.5546C38.9657 80.6491 44.5148 64.838 44.7808 64.1539C44.8949 63.8498 45.1989 63.6978 45.503 63.8118C45.807 63.9258 45.9591 64.2299 45.845 64.5339C45.807 64.686 40.2579 80.459 45.503 87.8705C47.2893 90.417 50.1779 91.7092 54.1307 91.7092C54.4347 91.7092 54.7008 91.9753 54.7008 92.2794C54.7008 92.6214 54.4347 92.8495 54.1307 92.8495Z" fill="#262425"/>
<path d="M36.5332 73.9597C36.4952 73.9597 36.4952 73.9597 36.4572 73.9597C25.283 72.7434 20.7221 66.5102 19.7719 65.0279C18.9358 65.0279 17.0734 64.9519 16.2752 64.3438C15.9712 64.1537 15.8192 63.8497 15.8192 63.5076C15.8192 63.0895 16.1232 62.6334 16.4653 62.2914C15.4771 62.1013 14.3369 61.6452 14.2609 60.6951C14.2228 60.353 14.3369 60.0489 14.5269 59.7829C14.945 59.2888 15.7051 58.9847 16.3513 58.8707C15.9712 58.1866 15.5531 57.1984 15.7812 56.4382C15.8952 56.0201 16.1992 55.6781 16.6173 55.5261C17.6055 55.108 18.4417 55.6021 19.0118 56.2482C19.2778 55.5641 19.8099 54.8419 20.6841 54.8419C22.0904 54.8419 23.2306 57.5024 23.6107 58.5666C30.8701 63.5076 37.6734 62.1774 37.7114 62.1393C38.0155 62.0633 38.3196 62.2914 38.3956 62.5954C38.4716 62.8995 38.2816 63.2036 37.9395 63.2796C37.6354 63.3556 30.528 64.7619 22.7745 59.4028C22.6605 59.3268 22.5845 59.2508 22.5465 59.1368C21.9764 57.5024 21.0642 55.9821 20.6461 55.9821C20.152 55.9821 19.8099 57.1224 19.7719 57.7305C19.7339 57.9965 19.5439 58.1866 19.2778 58.2246C19.0118 58.2626 18.7837 58.1106 18.6697 57.8825C18.6697 57.8825 17.9476 56.2102 16.9974 56.5903C16.8834 56.6283 16.8454 56.7043 16.8074 56.7803C16.6553 57.2744 17.2634 58.3766 17.6815 58.9847C17.7955 59.1368 17.8336 59.3648 17.7575 59.5548C17.6815 59.7449 17.4915 59.8589 17.3014 59.8969C16.6933 59.9729 15.6291 60.239 15.3631 60.543C15.3251 60.581 15.3251 60.619 15.3251 60.619C15.3631 60.8851 16.5033 61.3032 17.7955 61.3412C18.0236 61.3412 18.2516 61.5312 18.3276 61.7593C18.4037 61.9873 18.2896 62.2534 18.0996 62.3674C17.5675 62.7095 17.0354 63.2416 16.9214 63.4696C17.4915 63.7737 19.0498 63.9257 20 63.8877C20.228 63.8877 20.4181 64.0017 20.4941 64.1917C20.5321 64.2678 24.7129 71.5272 36.4572 72.8194C36.7613 72.8575 36.9893 73.1235 36.9513 73.4656C37.0653 73.7316 36.7993 73.9597 36.5332 73.9597Z" fill="#262425"/>
<path d="M29.1217 106C27.6775 106 26.2332 105.05 24.9789 103.302C22.8885 100.337 21.5583 95.2059 22.8885 92.7354C23.1166 92.2794 23.4966 92.0133 23.9527 91.8993C24.6369 91.7472 25.321 92.0513 25.8151 92.3174C26.2332 91.5572 27.1073 90.379 28.3236 90.2269C29.1978 90.1129 29.9959 90.683 30.49 91.1391C31.0601 90.493 32.0863 89.5808 33.4166 89.8849C34.7468 90.227 36.1151 94.5978 35.9631 98.1325C35.773 102.579 33.5306 105.354 29.5778 105.962C29.4638 105.962 29.2738 106 29.1217 106ZM24.3328 93.0015C24.2948 93.0015 24.2568 93.0015 24.2188 93.0015C24.1428 93.0395 24.0287 93.0775 23.9147 93.2675C22.8885 95.1679 23.8767 99.7288 25.9291 102.655C26.5752 103.568 27.9055 105.088 29.4638 104.86C32.3904 104.404 34.1387 102.655 34.7088 99.6528C35.469 95.662 33.7967 91.4052 33.1885 90.9871C32.0863 90.7591 31.1361 92.3174 31.0981 92.3174C30.9841 92.4694 30.8321 92.5834 30.642 92.5834C30.452 92.5834 30.262 92.5074 30.1479 92.3554C29.8439 91.9753 29.0837 91.2532 28.5516 91.3292C27.6395 91.4432 26.8413 92.8495 26.6133 93.3436C26.5372 93.4956 26.3852 93.6096 26.2332 93.6856C26.0431 93.7236 25.8911 93.6856 25.7391 93.5716C25.435 93.3816 24.7889 93.0015 24.3328 93.0015Z" fill="#262425"/>
<path d="M33.3026 90.9871C32.9985 90.9871 32.7325 90.759 32.7325 90.455C32.7325 90.1509 32.9605 89.8848 33.2646 89.8468C33.7967 89.8468 33.9867 89.6568 34.1007 89.5428C34.7088 88.7826 34.4048 86.3502 34.1007 84.5638C33.3406 80.0409 34.7088 75.8601 36.0011 73.1236C36.1531 72.8575 36.4952 72.7055 36.7612 72.8575C37.0273 73.0095 37.1793 73.3516 37.0273 73.6177C35.8111 76.2022 34.4808 80.1169 35.2029 84.3738C35.773 87.6804 35.697 89.3908 34.9749 90.2649C34.5948 90.721 34.0627 90.9871 33.3026 90.9871Z" fill="#262425"/>
<path d="M31.3642 105.582C31.1741 105.582 30.9841 105.468 30.8701 105.316C30.7181 105.05 30.7941 104.708 31.0601 104.518C35.697 101.705 42.8044 100.185 44.2107 99.9189C45.1609 99.7288 46.3391 99.9569 47.8214 100.261C49.4937 100.603 51.5461 101.021 54.1306 101.021C54.4347 101.021 54.7008 101.287 54.7008 101.591C54.7008 101.895 54.4347 102.161 54.1306 102.161C51.3941 102.161 49.3037 101.743 47.5934 101.401C46.2251 101.135 45.1609 100.907 44.4387 101.059C43.6026 101.211 36.2291 102.769 31.6682 105.506C31.5542 105.544 31.4402 105.582 31.3642 105.582Z" fill="#262425"/>
<path d="M16.5413 94.1037C15.173 94.1037 13.8428 93.5716 12.7405 92.5834C10.6881 90.721 9.69994 87.4904 10.08 83.9177C10.4981 79.8889 13.5007 77.3424 16.0852 76.6963C17.6435 76.3162 18.9358 76.6203 19.5439 77.4945C20.152 78.3686 20.342 79.2428 20.114 80.041C19.8099 81.2192 18.6317 82.2834 16.5793 83.2716C16.0092 83.5376 15.6671 84.1838 15.7051 84.9819C15.7431 85.7041 16.1232 86.5402 16.8833 86.8443C17.9096 87.2244 19.2778 86.5402 20.7601 84.9439C26.8793 78.4446 34.6708 82.6635 34.7468 82.7015C35.0129 82.8535 35.1269 83.1956 34.9749 83.4616C34.8229 83.7277 34.4808 83.8417 34.2147 83.6897C33.9107 83.5376 27.1074 79.8889 21.5963 85.7041C19.1258 88.3266 17.3394 88.2126 16.4653 87.8705C15.3631 87.4524 14.6029 86.3502 14.5269 85.0199C14.4509 83.7657 15.059 82.7015 16.0472 82.2454C17.7575 81.4092 18.7457 80.5731 18.9738 79.7369C19.0878 79.2428 18.9738 78.7107 18.5557 78.1026C18.2136 77.6465 17.3394 77.4945 16.3132 77.7605C14.1088 78.3306 11.5243 80.497 11.1822 83.9937C10.8402 87.1864 11.6763 90.0749 13.4627 91.7092C14.6029 92.7354 15.9332 93.1155 17.3774 92.8495C19.1258 92.5074 20.6461 91.2151 22.2804 89.8469C25.511 87.1103 29.1598 84.0317 35.1649 88.8587C35.393 89.0487 35.431 89.4288 35.2409 89.6568C35.0509 89.8849 34.6708 89.9229 34.4428 89.7329C29.1598 85.476 26.1572 88.0225 23.0025 90.721C21.3302 92.1273 19.6199 93.5716 17.6055 93.9897C17.2634 94.0657 16.8833 94.1037 16.5413 94.1037Z" fill="#262425"/>
<path d="M49.9878 36.1803C48.4675 38.3087 50.4819 39.9811 54.5107 40.9692L54.5867 36.3323C53.4084 36.3703 51.5081 34.0519 49.9878 36.1803Z" fill="#262425"/>
<path d="M54.1306 41.5393C54.0926 41.5393 54.0546 41.5393 53.9786 41.5393C51.128 40.8172 49.4937 39.829 48.9996 38.5367C48.6956 37.7006 48.8856 36.8264 49.5317 35.9142C50.862 34.0519 52.3063 34.964 53.1804 35.4961C53.5225 35.7242 53.9026 35.9522 54.1306 35.9522C54.4347 35.9522 54.7007 36.2183 54.7007 36.5223C54.7007 36.8264 54.4347 37.0925 54.1306 37.0925C53.5605 37.0925 53.0664 36.7884 52.5723 36.4843C51.5841 35.8762 51.128 35.6482 50.4819 36.5984C50.0638 37.2065 49.9118 37.7386 50.1018 38.1947C50.4439 39.1069 51.9262 39.905 54.2827 40.5131C54.5867 40.5891 54.7767 40.8932 54.7007 41.1973C54.6247 41.3493 54.3967 41.5393 54.1306 41.5393Z" fill="#262425"/>
<path d="M41.4361 34.9261C41.4361 36.6744 40.448 38.0807 39.2317 38.0807C38.0155 38.0807 37.0273 36.6744 37.0273 34.9261C37.0273 33.1778 38.0155 31.7715 39.2317 31.7715C40.448 31.7715 41.4361 33.1778 41.4361 34.9261Z" fill="#262425"/>
<path d="M41.6642 26.7925C41.5882 26.6405 41.4362 26.5265 41.2841 26.4505C41.0561 26.3365 40.866 26.2604 40.6 26.2604C40.2199 26.2224 39.8398 26.2224 39.4978 26.2604C39.1937 26.2984 38.9277 26.3365 38.6236 26.4125C38.3576 26.4885 38.0915 26.6025 37.8254 26.7545C37.4074 26.9446 37.0273 27.2106 36.6852 27.5147C36.2291 27.9328 35.8491 28.5409 36.0011 29.149C36.0771 29.4151 36.3051 29.6811 36.5712 29.7191C36.7992 29.7571 37.0273 29.7571 37.2553 29.6811C37.4454 29.6431 37.6354 29.5291 37.7874 29.4531C37.9775 29.3771 38.1675 29.263 38.3575 29.187C38.6616 29.073 39.0037 28.959 39.3077 28.921C39.1937 28.921 39.0797 28.959 38.9657 28.959C39.0797 28.959 39.2317 28.921 39.3457 28.921C39.6878 28.883 40.0299 28.883 40.41 28.921C40.3339 28.921 40.2579 28.921 40.2199 28.883C40.6 28.921 40.904 28.921 41.2081 28.7309C41.5882 28.5409 41.7782 28.1608 41.8542 27.7427C41.9683 27.4007 41.8922 27.0586 41.6642 26.7925Z" fill="#262425"/>
<path d="M51.7742 47.8106C49.0756 47.8106 47.9354 45.3401 47.8594 45.2261C47.7454 44.922 47.8594 44.618 48.1254 44.4659C48.4295 44.3519 48.7336 44.4659 48.8856 44.732C48.9236 44.808 49.7978 46.6704 51.7362 46.6704C53.5225 46.6704 53.5225 45.9862 53.5225 44.3519V41.5393C53.5225 41.2353 53.7886 40.9692 54.0926 40.9692C54.3967 40.9692 54.6627 41.2353 54.6627 41.5393V44.3519C54.7007 45.8722 54.7007 47.8106 51.7742 47.8106Z" fill="#262425"/>
<!-- Code injected by live-server -->
<script>
	// <![CDATA[  <-- For SVG support
	if ('WebSocket' in window) {
		(function () {
			function refreshCSS() {
				var sheets = [].slice.call(document.getElementsByTagName("link"));
				var head = document.getElementsByTagName("head")[0];
				for (var i = 0; i < sheets.length; ++i) {
					var elem = sheets[i];
					var parent = elem.parentElement || head;
					parent.removeChild(elem);
					var rel = elem.rel;
					if (elem.href && typeof rel != "string" || rel.length == 0 || rel.toLowerCase() == "stylesheet") {
						var url = elem.href.replace(/(&|\?)_cacheOverride=\d+/, '');
						elem.href = url + (url.indexOf('?') >= 0 ? '&' : '?') + '_cacheOverride=' + (new Date().valueOf());
					}
					parent.appendChild(elem);
				}
			}
			var protocol = window.location.protocol === 'http:' ? 'ws://' : 'wss://';
			var address = protocol + window.location.host + window.location.pathname + '/ws';
			var socket = new WebSocket(address);
			socket.onmessage = function (msg) {
				if (msg.data == 'reload') window.location.reload();
				else if (msg.data == 'refreshcss') refreshCSS();
			};
			if (sessionStorage && !sessionStorage.getItem('IsThisFirstTime_Log_From_LiveServer')) {
				console.log('Live reload enabled.');
				sessionStorage.setItem('IsThisFirstTime_Log_From_LiveServer', true);
			}
		})();
	}
	else {
		console.error('Upgrade your browser. This Browser is NOT supported WebSocket for Live-Reloading.');
	}
	// ]]>
</script>
</svg>
