<svg xmlns="http://www.w3.org/2000/svg" width="125" height="125" viewBox="0 0 125 125"><defs><style>.a{fill:#fff;}.b{fill:#fdc378;}.c{fill:#fdb656;}.d{fill:#a4d8f4;}.e{fill:#fde0ba;}.f{fill:#fdcb87;}</style></defs><g transform="translate(-949 -1230)"><circle class="a" cx="62.5" cy="62.5" r="62.5" transform="translate(949 1230)"/><g transform="translate(989 1259)"><path class="b" d="M87.914,127.9a12.873,12.873,0,0,1-1.521-.83,4.166,4.166,0,0,1-1.582-3.667c0-2.11-.088-4.223.029-6.326a3.2,3.2,0,0,0-1.884-3.2c-.755-.428-1.51-.856-2.289-1.237-1.709-.837-2.737-2.383-3.937-3.744-1.907-2.167-3.783-4.361-5.669-6.548-1.007-1.167-2.049-2.3-3-3.517a3.9,3.9,0,0,1,5.914-5.062q3.125,3.147,6.273,6.273c.16.16.335.307.649.592V99.7q0-11.089.007-22.178a6.586,6.586,0,0,1,.15-1.744A3.768,3.768,0,0,1,83.275,73.2a3.868,3.868,0,0,1,5.151,2.025,5.85,5.85,0,0,1,.363,2.093c.038,3.2.018,6.393.013,9.589,0,.216-.038.431-.059.647s-.028.446-.042.668l.09.015c.052-.222.1-.444.155-.668a3.792,3.792,0,0,1,4.18-2.757,3.579,3.579,0,0,1,3.311,2.961c.025.114.139.208.212.31-.039.6-.111,1.206-.111,1.809q-.01,19-.007,38.006Z" transform="translate(-67.189 -61.101)"/><path class="c" d="M246.72,188.589q0-19,.007-38.006c0-.6.072-1.206.111-1.809a3.9,3.9,0,0,1,7.636-.412,25.36,25.36,0,0,1,.253,3.709,4.129,4.129,0,0,1,2.543-2.551,3.9,3.9,0,0,1,5.115,3.348c.013.626.1,1.25.1,1.876.008,4.891-.059,9.785.034,14.674a7.953,7.953,0,0,1-1.972,5.322,24.069,24.069,0,0,0-1.788,2.822,1.676,1.676,0,0,0-.165.809c-.016,1.935.025,3.871-.038,5.8a6.445,6.445,0,0,1-.44,2.2,4.126,4.126,0,0,1-2.783,2.216Q251.025,188.588,246.72,188.589Zm7.86-35.861.078,0-.02-.288-.059,0Z" transform="translate(-217.383 -121.786)"/><path class="d" d="M167.424,4.742c-.051.732-.083,1.467-.159,2.2a1.892,1.892,0,0,1-1.905,1.686,1.834,1.834,0,0,1-1.876-1.708c-.059-1.464-.059-2.935,0-4.4A1.83,1.83,0,0,1,165.347.8a1.9,1.9,0,0,1,1.925,1.739c.029.235.092.469.1.7.016.5,0,1,0,1.5A.245.245,0,0,0,167.424,4.742Z" transform="translate(-147.711 -0.799)"/><path class="d" d="M83.063,72.635c.629,0,1.258-.013,1.887,0a1.954,1.954,0,0,1-.021,3.907q-1.919.025-3.84,0a1.956,1.956,0,1,1,.02-3.907C81.762,72.625,82.413,72.635,83.063,72.635Z" transform="translate(-77.103 -60.892)"/><path class="d" d="M226.714,76.515c-.65,0-1.3.016-1.953,0a1.952,1.952,0,1,1-.015-3.9q1.985-.039,3.971,0a1.843,1.843,0,0,1,1.871,1.91,1.862,1.862,0,0,1-1.856,1.992C228.061,76.533,227.388,76.513,226.714,76.515Z" transform="translate(-197.338 -60.859)"/><path class="d" d="M108.892,15.74a7.38,7.38,0,0,1,1.386.794c.9.812,1.727,1.708,2.592,2.561a1.965,1.965,0,0,1-1.25,3.425,2.242,2.242,0,0,1-1.374-.587c-1-.9-1.936-1.866-2.861-2.842a1.747,1.747,0,0,1-.361-2.043,1.654,1.654,0,0,1,1.78-1.134C108.83,15.856,108.861,15.8,108.892,15.74Z" transform="translate(-100.36 -13.298)"/><path class="d" d="M207.436,15.9a1.743,1.743,0,0,1,1.812,1.186,1.81,1.81,0,0,1-.42,2.038q-1.355,1.4-2.758,2.762a1.807,1.807,0,0,1-2.752.036,1.888,1.888,0,0,1,.051-2.824c.851-.866,1.688-1.75,2.588-2.564a7.533,7.533,0,0,1,1.382-.8Z" transform="translate(-180.563 -13.29)"/><path class="e" d="M199.055,162.715c-.052.222-.1.444-.155.668l-.09-.015c.015-.222.028-.446.042-.668Z" transform="translate(-177.302 -136.244)"/><path class="f" d="M294.82,188.661v-.288l.059,0,.02.288C294.872,188.658,294.846,188.659,294.82,188.661Z" transform="translate(-257.623 -157.719)"/></g></g></svg>