<svg xmlns="http://www.w3.org/2000/svg" width="125" height="125" viewBox="0 0 125 125"><defs><style>.a{fill:#fff;}.b{fill:#1bb975;}.c{fill:#20d588;}.d{fill:#36e198;}.e{fill:#1fd588;}</style></defs><g transform="translate(-164 -1226)"><circle class="a" cx="62.5" cy="62.5" r="62.5" transform="translate(164 1226)"/><g transform="translate(199 1258)"><path class="b" d="M197.043,431.247c-.7-.5-1.392-1.02-2.1-1.511-1.6-1.1-3.2-2.189-4.8-3.288-.687-.473-.69-.9,0-1.369,2.2-1.513,4.4-3.027,6.621-4.516.232-.156.665-.284.844-.171a1.166,1.166,0,0,1,.373.836c.051.868.026,1.742.03,2.612q0,1.928-.006,3.855c0,.849.029,1.7-.024,2.545a3.984,3.984,0,0,1-.341,1C197.439,431.247,197.242,431.247,197.043,431.247Z" transform="translate(-170.28 -370.365)"/><path class="b" d="M251.706,3.528c0-.867-.039-1.736.01-2.6A3.177,3.177,0,0,1,252.083,0h.476L259.4,4.687c.883.606.888.979.008,1.582-2.136,1.463-4.266,2.931-6.42,4.368a1.2,1.2,0,0,1-.947.191c-.2-.082-.314-.546-.329-.845-.042-.848-.013-1.7-.013-2.551Q251.7,5.479,251.706,3.528Z" transform="translate(-224.963 0)"/><path class="c" d="M53.673,29.67q0,1.951-.006,3.9a20.212,20.212,0,0,0-6.645,1.106,23.039,23.039,0,0,0-6.734,40.632,2.11,2.11,0,0,1,1.118,2.124,1.927,1.927,0,0,1-3.081,1.2,26.583,26.583,0,0,1-7.606-8.232,25.719,25.719,0,0,1-3.739-14.987c.6-9.595,5.169-16.881,13.324-21.9a26.2,26.2,0,0,1,13.073-3.815C53.476,29.7,53.574,29.683,53.673,29.67Z" transform="translate(-26.93 -26.142)"/><path class="c" d="M260.07,116.324q0-1.928.006-3.855a22.905,22.905,0,0,0,15.072-5.97,22.192,22.192,0,0,0,7.7-18.869,22.468,22.468,0,0,0-9.468-16.965,2.221,2.221,0,0,1-1.067-1.5,1.926,1.926,0,0,1,3.035-1.826,26.052,26.052,0,0,1,5.3,4.917,25.532,25.532,0,0,1,6.089,17.913c-.652,11.64-6.634,19.681-17.29,24.266A25.223,25.223,0,0,1,260.07,116.324Z" transform="translate(-232.347 -58.993)"/><path class="d" d="M217.92,196.107l10.094-8.392q1.188-.986,2.381-1.969a3.059,3.059,0,0,1,4.4.3,3.013,3.013,0,0,1-.356,4.345c-2.47,2.108-4.985,4.163-7.487,6.232-1.356,1.121-2.724,2.226-4.087,3.338A14.383,14.383,0,0,1,217.92,196.107Z" transform="translate(-195.209 -162.959)"/><path class="e" d="M154.273,239.9a14.408,14.408,0,0,0,4.945,3.852c-1.017.85-2.01,1.733-3.057,2.542a3.727,3.727,0,0,1-5.258-.629c-1.584-2.027-3.123-4.092-4.636-6.173a3.057,3.057,0,0,1,4.91-3.641C152.227,237.191,153.242,238.554,154.273,239.9Z" transform="translate(-131.562 -206.757)"/></g></g></svg>