<svg xmlns="http://www.w3.org/2000/svg" width="71" height="71" viewBox="0 0 71 71"><defs><style>.a{fill:#ff7c29;}.b{fill:#fefefe;}.c{fill:#d0d0d0;}.d{fill:#bfbfbf;}</style></defs><g transform="translate(-1117 -4039)"><path class="a" d="M35.5,0C46.872,0,59.143,4.832,65.812,13.371,70.345,19.171,71,27.265,71,35.5c0,10.47-2.475,20.13-9.894,26.815C55.024,67.8,44.636,71,35.5,71,24.285,71,12.323,67.428,5.652,59.1.95,53.231,0,43.891,0,35.5,0,21.913,4.472,9.427,15.927,3.331,20.651.816,29.481,0,35.5,0Z" transform="translate(1117 4039)"/><g transform="translate(640.221 3373.41)"><path class="a" d="M488.779,688.037a1.184,1.184,0,0,1,1.227-.66c.807.036,1.617,0,2.425.014.234,0,.307-.059.317-.3.063-1.54.067-1.553,1.561-1.872a23.622,23.622,0,0,1,11.446.157,14.019,14.019,0,0,1,6.166,3.5c.162.159.266.282.5.053a15.287,15.287,0,0,1,8.786-4.092,25.029,25.029,0,0,1,9.659.562.935.935,0,0,1,.769,1.035c.031.962.031.962.975.962.641,0,1.281,0,1.922,0,.773.006,1.1.34,1.106,1.126q0,3.844,0,7.688,0,10.411,0,20.822a1.218,1.218,0,0,1-.2.824.886.886,0,0,1-1.149.236,27.838,27.838,0,0,0-9.253-2.658,33.465,33.465,0,0,0-9.434.2c-.963.156-1.916.357-2.863.584a4.444,4.444,0,0,1-2.023-.219,34.072,34.072,0,0,0-10.546-.62,29.941,29.941,0,0,0-10.04,2.7c-.592.281-.987.1-1.36-.569Z" transform="translate(0 0)"/><path class="b" d="M546.012,724.746a16.391,16.391,0,0,0-3.838-1.761,27.463,27.463,0,0,0-9.625-1.067c-.974.048-1.946.143-2.917.234-.264.024-.365-.011-.365-.319q.015-11.622.005-23.245c0-.2.014-.312.268-.363a21.022,21.022,0,0,1,11.36.494,12.142,12.142,0,0,1,4.888,3.188.7.7,0,0,1,.223.517q0,11.05.013,22.1C546.025,724.579,546.018,724.634,546.012,724.746Z" transform="translate(-34.729 -11.228)"/><path class="b" d="M659.832,724.784v-.351q0-10.956-.006-21.911a.844.844,0,0,1,.269-.636,13.431,13.431,0,0,1,7.6-3.857,22.912,22.912,0,0,1,8.494.209c.3.058.376.175.376.475q-.014,11.527,0,23.055c0,.383-.116.458-.462.415a35.432,35.432,0,0,0-5.43-.266,23.471,23.471,0,0,0-8.887,1.824A15.582,15.582,0,0,0,659.832,724.784Z" transform="translate(-146.713 -11.265)"/><path class="b" d="M517.09,741.263a36.036,36.036,0,0,0-5.3-.029,33.4,33.4,0,0,0-9.629,2.152c-.194.075-.391.145-.623.231v-.506q0-12.808-.008-25.616c0-.393.064-.57.5-.525a8.56,8.56,0,0,0,1.325,0c.289-.016.358.085.354.362-.016,1.067-.006,2.135-.006,3.2q0,9.446-.008,18.892c0,.981.468,1.214.948,1.237a4.409,4.409,0,0,0,.77-.09,30.283,30.283,0,0,1,10.725.237c.444.1.879.243,1.319.366C517.379,741.394,517.223,741.276,517.09,741.263Z" transform="translate(-10.937 -27.769)"/><path class="b" d="M693.4,741.188a23.575,23.575,0,0,1,7.262-.955,45.685,45.685,0,0,1,5.24.392c.938.118,1.3-.225,1.3-1.165q0-10.98-.01-21.96c0-.416.1-.55.517-.514a11.738,11.738,0,0,0,1.372,0c.219-.007.312.062.28.282a.935.935,0,0,0,0,.137q-.016,12.947-.031,25.894c0,.091,0,.182,0,.306-.911-.313-1.791-.632-2.682-.917a33.449,33.449,0,0,0-11.721-1.5c-.411.018-.82.055-1.231.083C693.584,741.286,693.443,741.4,693.4,741.188Z" transform="translate(-175.512 -27.782)"/><path class="c" d="M690.5,887.136l.291.09a1.285,1.285,0,0,1-.772.022Z" transform="translate(-172.61 -173.731)"/><path class="d" d="M610.9,887.26c.116-.065.265.022.372-.083l.38.087A1.063,1.063,0,0,1,610.9,887.26Z" transform="translate(-104.746 -173.766)"/></g></g></svg>