<svg xmlns="http://www.w3.org/2000/svg" width="125" height="125" viewBox="0 0 125 125"><defs><style>.a{fill:#fff;}.b{fill:#1dd8dd;}.c{fill:#a3d8f4;}.d{fill:#c9e7f8;}.e{fill:#1fe7f0;}.f{fill:#58565d;}.g{fill:#797881;}.h{fill:#1dd9dd;}.i{fill:#7b7a83;}.j{fill:#3c3a41;}</style></defs><g transform="translate(-164 -1033)"><circle class="a" cx="62.5" cy="62.5" r="62.5" transform="translate(164 1033)"/><g transform="translate(200.19 1047.541)"><path class="b" d="M357.766,53.448a6.423,6.423,0,0,0-.192.736,16.079,16.079,0,0,1-4.587,9.134,1.45,1.45,0,0,1-2.046.067,1.475,1.475,0,0,1-.143-2.045,31.477,31.477,0,0,0,2.238-2.992,12.722,12.722,0,0,0,1.608-8.452,13.1,13.1,0,0,0-3.624-7.4,1.6,1.6,0,0,1-.524-1.559,1.412,1.412,0,0,1,1.049-1.077,1.442,1.442,0,0,1,1.487.429,16.14,16.14,0,0,1,4.548,9.155c.04.283.124.562.188.841Q357.766,51.867,357.766,53.448Z" transform="translate(-306.391 -12.57)"/><path class="c" d="M205.22,25.474a7.55,7.55,0,0,1,7.453,5.832,6.329,6.329,0,0,1,.145,1.265c.009,6.188.051,12.377-.019,18.564a6.786,6.786,0,0,1-2.953,5.387,7.15,7.15,0,0,1-4.626,1.538Z" transform="translate(-179.126 0)"/><path class="d" d="M151.249,25.491q0,16.292,0,32.585a7.624,7.624,0,0,1-7.481-6,6.319,6.319,0,0,1-.121-1.268c-.007-5.989-.032-11.98.006-17.969a7.154,7.154,0,0,1,3.877-6.416A6.492,6.492,0,0,1,151.249,25.491Z" transform="translate(-125.155 -0.017)"/><path class="e" d="M.81,51.652a16.207,16.207,0,0,1,4.7-11.308,1.486,1.486,0,0,1,2.123-.14,1.465,1.465,0,0,1,.051,2.156,13.693,13.693,0,0,0-2.757,4.055,13.06,13.06,0,0,0,.606,11.944,28.692,28.692,0,0,0,1.91,2.62,3.723,3.723,0,0,1,.648,1.127,1.378,1.378,0,0,1-.811,1.535,1.44,1.44,0,0,1-1.717-.329,16.327,16.327,0,0,1-2.836-3.831A16.6,16.6,0,0,1,.81,51.652Z" transform="translate(0 -12.587)"/><path class="f" d="M194.707,228.972a10.584,10.584,0,0,0,7.8-3.442,10.028,10.028,0,0,0,2.77-6.821,1.5,1.5,0,0,1,1.017-1.526,1.381,1.381,0,0,1,1.6.428,1.823,1.823,0,0,1,.366.985,12.741,12.741,0,0,1-2.442,7.6,13.676,13.676,0,0,1-8.327,5.477c-.43.1-.87.161-1.3.24l-1.478.1v2.865l-.019.019-1.466-.015q0-1.482,0-2.964c.344,0,.69-.019,1.033.006s.46-.092.451-.442C194.688,230.646,194.706,229.809,194.707,228.972Z" transform="translate(-168.61 -167.929)"/><path class="g" d="M109.309,229.066c0,.836-.019,1.672,0,2.509.009.349-.11.466-.451.442s-.688-.006-1.033-.006c-.607-.13-1.225-.225-1.82-.395a13.372,13.372,0,0,1-9.97-10.259,13.8,13.8,0,0,1-.267-2.689,1.408,1.408,0,0,1,1.315-1.461,1.448,1.448,0,0,1,1.594,1.225c.114.711.089,1.45.242,2.15a10.3,10.3,0,0,0,7.432,8.043A18.181,18.181,0,0,0,109.309,229.066Z" transform="translate(-83.212 -168.022)"/><path class="h" d="M321.944,81.424a10.5,10.5,0,0,1-2.981,7.382,1.463,1.463,0,0,1-2.115.135,1.416,1.416,0,0,1-.078-2.109,7.732,7.732,0,0,0,2.034-3.82,7.259,7.259,0,0,0-1.821-6.487,1.788,1.788,0,0,1-.627-1.389,1.425,1.425,0,0,1,.959-1.267,1.4,1.4,0,0,1,1.587.357,10.255,10.255,0,0,1,2.943,6.049C321.9,80.714,321.922,81.158,321.944,81.424Z" transform="translate(-276.498 -42.329)"/><path class="e" d="M52.943,89.484a4.812,4.812,0,0,1-1.032-.592,10.351,10.351,0,0,1-.43-14.133c.143-.158.277-.327.429-.476a1.483,1.483,0,0,1,2.2,1.988,17.881,17.881,0,0,0-1.249,1.645,7.362,7.362,0,0,0,.867,8.579c.479.523.925,1.045.678,1.833A1.779,1.779,0,0,1,52.943,89.484Z" transform="translate(-42.144 -42.38)"/><path class="f" d="M206.588,360.872c1.5.006,2.993.006,4.49.02a1.493,1.493,0,0,1,1.643,1.461,1.475,1.475,0,0,1-1.591,1.56c-2.006.016-4.013,0-6.019,0q-.011-1.512-.021-3.023l.019-.019Z" transform="translate(-179.012 -293.922)"/><path class="i" d="M151.246,360.9q.011,1.512.021,3.023c-1.988,0-3.976,0-5.963-.01a1.5,1.5,0,0,1-1.651-1.346,1.479,1.479,0,0,1,1.594-1.646c1.331-.016,2.662,0,3.993-.006.179,0,.359-.02.539-.03Q150.514,360.9,151.246,360.9Z" transform="translate(-125.169 -293.94)"/><path class="e" d="M100.817,109.294a5.694,5.694,0,0,1-.468.945,1.546,1.546,0,0,0-.025,2.181A1.487,1.487,0,1,1,98,114.259a4.435,4.435,0,0,1,.161-6.01,1.492,1.492,0,0,1,1.629-.374A1.684,1.684,0,0,1,100.817,109.294Z" transform="translate(-84.213 -72.133)"/><path class="h" d="M281.88,113.351a7.073,7.073,0,0,1,.51-.975,1.537,1.537,0,0,0-.017-2.136,1.485,1.485,0,1,1,2.312-1.844,4.4,4.4,0,0,1-.1,5.956,1.481,1.481,0,0,1-1.695.432A1.721,1.721,0,0,1,281.88,113.351Z" transform="translate(-246.303 -72.094)"/><path class="j" d="M206.711,339.9l-1.481,0v-2.865l1.478-.1Q206.708,338.421,206.711,339.9Z" transform="translate(-179.134 -272.952)"/></g></g></svg>