<svg xmlns="http://www.w3.org/2000/svg" width="125" height="125" viewBox="0 0 125 125"><defs><style>.a{fill:#fff;}.b{fill:#53c2bf;}</style></defs><g transform="translate(-553 -1033)"><circle class="a" cx="62.5" cy="62.5" r="62.5" transform="translate(553 1033)"/><g transform="translate(3.3 4.8)"><path d="M593.7,1090.5V1065.35a4.787,4.787,0,0,1,3.776-4.978,5.667,5.667,0,0,1,1.2-.086c7.209,0,14.419,0,21.628-.086,1.974,0,3.948,0,5.836.086a4.753,4.753,0,0,1,4.978,5.064v50.38a4.753,4.753,0,0,1-4.978,5.064H598.764a4.82,4.82,0,0,1-5.064-5.064Z"/><path class="b" d="M604.836,1065.87a4.318,4.318,0,0,0,4.034,1.888c2.918-.086,5.75-.086,8.669,0a4.6,4.6,0,0,0,4.034-1.888.315.315,0,0,1,.257-.086,32.127,32.127,0,0,1,4.978,0c.343,0,.515.258.515.6a4.136,4.136,0,0,1,0,1.03v47.977c0,1.545-.086,1.545-1.631,1.631-1.8,0-3.6-.086-5.407.086a.084.084,0,0,1-.086-.086c-.343-1.116-1.116-1.2-2.146-1.2h-9.527c-1.116,0-2.06,0-2.489,1.287-1.888-.172-3.776-.086-5.665-.086-1.2,0-1.373-.172-1.373-1.373v-49.265a.753.753,0,0,1,.515-.6,48.15,48.15,0,0,1,4.978,0C604.665,1065.784,604.75,1065.87,604.836,1065.87Z" transform="translate(-0.751 -0.777)"/><path class="a" d="M619.917,1116.484c.172-.257.429-.172.687-.172h5.235c.6,0,.858-.172.858-.772v-49.007c0-1.03.172-.944-.944-.944h-4.635a17.3,17.3,0,0,0,.6-1.974.6.6,0,0,1,.687-.515h4.034a2.4,2.4,0,0,1,2.661,2.661v50.123a2.765,2.765,0,0,1-.515,1.974,2.628,2.628,0,0,1-2.317.944h-16.65c-3.433,0-6.866-.086-10.3,0a2.705,2.705,0,0,1-2.918-2.918v-49.951a2.6,2.6,0,0,1,2.918-2.832c1.287.086,2.575,0,3.862,0a.6.6,0,0,1,.687.515c.172.687.429,1.287.6,1.974H599.49c-.515,0-.6.172-.6.6v49.522c0,.515.172.687.687.687h5.407c.258,0,.515-.086.687.172a2.732,2.732,0,0,0,2.4.858H617.6C618.457,1117.342,619.316,1117.342,619.917,1116.484Z" transform="translate(-0.383 -0.41)"/><path class="a" d="M620.947,1063.1c-.172,1.459-.687,1.888-1.974,1.888H609.7a1.584,1.584,0,0,1-1.716-1.287c-.172-.515-.086-.6.429-.6h12.531Z" transform="translate(-2.014 -0.411)"/><path d="M621.447,1125.073c-.258.858-.515,1.116-1.373,1.116h-11.5c-.858,0-1.2-.257-1.373-1.116.086-.944.515-1.373,1.459-1.373h11.329C620.932,1123.786,621.361,1124.129,621.447,1125.073Z" transform="translate(-1.913 -9)"/></g></g></svg>